<?xml version="1.0" encoding="UTF-8" standalone="no"?>
<!DOCTYPE svg PUBLIC "-//W3C//DTD SVG 1.1//EN" "http://www.w3.org/Graphics/SVG/1.1/DTD/svg11.dtd">
<svg width="100%" height="100%" viewBox="0 0 567 307" version="1.1" xmlns="http://www.w3.org/2000/svg" xmlns:xlink="http://www.w3.org/1999/xlink" xml:space="preserve" xmlns:serif="http://www.serif.com/" style="fill-rule:evenodd;clip-rule:evenodd;stroke-miterlimit:10;">
    <g id="Artboard1" transform="matrix(1,0,0,1,-0.331411,-3.9022)">
        <rect x="0.331" y="3.902" width="566.397" height="306.397" style="fill:none;"/>
        <clipPath id="_clip1">
            <rect x="0.331" y="3.902" width="566.397" height="306.397"/>
        </clipPath>
        <g clip-path="url(#_clip1)">
            <g transform="matrix(1,0,0,1,-50.6686,-68.0978)">
                <text x="102.673px" y="326.923px" style="font-family:'Helvetica';font-size:24px;">time</text>
            </g>
            <g transform="matrix(1,0,0,1,-50.6686,-68.0978)">
                <text x="337.234px" y="149.688px" style="font-family:'STIXGeneral-Italic', 'STIXGeneral';font-style:italic;font-size:24px;">x</text>
            </g>
            <g transform="matrix(1,0,0,1,-20.8484,-64.7737)">
                <text x="367.431px" y="82.7px" style="font-family:'Helvetica';font-size:18px;">(</text>
                <text x="373.425px" y="82.7px" style="font-family:'STIXGeneral-Italic', 'STIXGeneral';font-style:italic;font-size:18px;">x</text>
                <g transform="matrix(1.25,0,0,1.25,-95.3543,-21.299)">
                    <text x="381.417px" y="85.196px" style="font-family:'STIXGeneral-Italic', 'STIXGeneral';font-style:italic;font-size:10.494px;">t</text>
                </g>
                <text x="385.064px" y="82.7px" style="font-family:'STIXGeneral-Italic', 'STIXGeneral';font-style:italic;font-size:18px;">, y</text>
                <g transform="matrix(1.25,0,0,1.25,-100.514,-21.299)">
                    <text x="402.056px" y="85.196px" style="font-family:'STIXGeneral-Italic', 'STIXGeneral';font-style:italic;font-size:10.494px;">t</text>
                </g>
                <text x="405.703px" y="82.7px" style="font-family:'STIXGeneral-Italic', 'STIXGeneral';font-style:italic;font-size:18px;">, z</text>
                <g transform="matrix(1.25,0,0,1.25,-105.426,-21.299)">
                    <text x="421.705px" y="85.196px" style="font-family:'STIXGeneral-Italic', 'STIXGeneral';font-style:italic;font-size:10.494px;">t</text>
                </g>
                <text x="425.351px" y="82.7px" style="font-family:'Helvetica';font-size:18px;">)</text>
            </g>
            <g transform="matrix(1,0,0,1,-50.6686,-68.0978)">
                <text x="358.471px" y="341.663px" style="font-family:'STIXGeneral-Italic', 'STIXGeneral';font-style:italic;font-size:24px;">y</text>
            </g>
            <g transform="matrix(1,0,0,1,-50.6686,-68.0978)">
                <text x="534.859px" y="377.355px" style="font-family:'STIXGeneral-Italic', 'STIXGeneral';font-style:italic;font-size:24px;">z</text>
            </g>
            <g transform="matrix(0.999829,-0.0185031,-0.0185031,-0.999829,-47.8099,385.463)">
                <path d="M68.032,152.705L319.638,152.705" style="fill:none;stroke:rgb(80,80,80);stroke-width:2px;"/>
            </g>
            <g transform="matrix(1,0,0,1,-50.6686,-106.889)">
                <path d="M62.922,175.211L63.416,181.293M62.468,170.222L62.922,175.211M65.058,203.833L65.624,211.88L66.184,219.781M64.494,195.872L65.058,203.833M66.184,219.781L66.731,227.353L67.261,234.467L67.769,241.043M61.699,163.909L62.06,166.448M63.944,188.266L64.494,195.872M67.769,241.043L68.256,247.044L68.721,252.464L69.164,257.32M62.06,166.448L62.468,170.222M63.416,181.293L63.944,188.266M69.586,261.645L69.991,265.482L70.378,268.875L70.751,271.872L71.11,274.518M89.116,289.854L89.39,290.258M89.665,290.686L89.941,291.134M89.39,290.258L89.665,290.686M86.175,287.574L86.436,287.59M85.657,287.664L85.915,287.599M84.639,288.314L84.892,288.096M83.64,289.511L83.889,289.169M85.146,287.914L85.401,287.769M88.843,289.475L89.116,289.854M84.138,288.853L84.388,288.568M88.571,289.125L88.843,289.475M86.436,287.59L86.698,287.646M88.299,288.806L88.571,289.125M85.915,287.599L86.175,287.574M88.029,288.52L88.299,288.806M85.401,287.769L85.657,287.664M87.76,288.27L88.029,288.52M84.892,288.096L85.146,287.914M87.493,288.056L87.76,288.27M84.388,288.568L84.639,288.314M83.147,290.264L83.393,289.877M83.889,289.169L84.138,288.853M86.961,287.743L87.226,287.88M83.393,289.877L83.64,289.511M86.698,287.646L86.961,287.743M87.226,287.88L87.493,288.056M91.324,293.534L91.6,294.015M91.047,293.047L91.324,293.534M90.77,292.559L91.047,293.047M90.217,291.598L90.493,292.075L90.77,292.559M89.941,291.134L90.217,291.598M81.675,292.769L81.92,292.352L82.165,291.929M81.429,293.175L81.675,292.769M77.333,294.997L77.602,295.226L77.868,295.407M71.458,276.856L71.795,278.924M77.868,295.407L78.133,295.539M72.124,280.758L72.445,282.389M78.133,295.539L78.396,295.621M72.759,283.845L73.068,285.15M78.396,295.621L78.657,295.654M73.372,286.325L73.672,287.387M78.657,295.654L78.917,295.638M73.967,288.35L74.26,289.228M78.917,295.638L79.175,295.573M74.55,290.031L74.837,290.766M79.175,295.573L79.431,295.462M75.122,291.439L75.405,292.057M79.431,295.462L79.685,295.305M75.686,292.622L75.965,293.137M79.938,295.105L80.189,294.864M76.242,293.604L76.517,294.023M80.189,294.864L80.439,294.586M76.791,294.395L77.063,294.72M80.439,294.586L80.688,294.274M71.11,274.518L71.458,276.856M80.688,294.274L80.936,293.932M72.445,282.389L72.759,283.845M80.936,293.932L81.183,293.564M73.672,287.387L73.967,288.35M69.164,257.32L69.586,261.645M74.837,290.766L75.122,291.439M81.183,293.564L81.429,293.175M75.965,293.137L76.242,293.604M79.685,295.305L79.938,295.105M77.063,294.72L77.333,294.997M82.901,290.666L83.147,290.264M82.655,291.081L82.901,290.666M82.165,291.929L82.41,291.503L82.655,291.081M75.405,292.057L75.686,292.622M76.517,294.023L76.791,294.395M71.795,278.924L72.124,280.758M74.26,289.228L74.55,290.031M73.068,285.15L73.372,286.325M61.381,162.527L61.699,163.909M91.876,294.484L92.151,294.937L92.426,295.366M91.6,294.015L91.876,294.484M92.699,295.768L92.972,296.136L93.243,296.464L93.512,296.748L93.78,296.982L94.046,297.162L94.31,297.285L94.572,297.347M92.426,295.366L92.699,295.768M94.832,297.345L95.089,297.278M95.849,296.686L96.098,296.363M95.598,296.948L95.849,296.686M96.345,295.982L96.59,295.548M96.098,296.363L96.345,295.982M96.59,295.548L96.834,295.065M95.089,297.278L95.345,297.145M94.572,297.347L94.832,297.345M95.345,297.145L95.598,296.948M96.834,295.065L97.076,294.54L97.317,293.978L97.557,293.387M98.036,292.148L98.275,291.514M97.797,292.775L98.036,292.148M98.275,291.514L98.514,290.881L98.753,290.255L98.993,289.643L99.233,289.052L99.475,288.487M97.557,293.387L97.797,292.775M99.717,287.954L99.961,287.457M99.475,288.487L99.717,287.954M105.464,288.738L105.743,289.33M106.023,289.953L106.304,290.605M102.487,285.157L102.749,285.225M101.968,285.187L102.226,285.144M100.951,285.911L101.202,285.649M99.961,287.457L100.206,287.001M101.455,285.44L101.711,285.286M105.186,288.182L105.464,288.738M100.453,286.59L100.701,286.226M104.909,287.665L105.186,288.182M102.749,285.225L103.014,285.349M104.634,287.19L104.909,287.665M102.226,285.144L102.487,285.157M104.36,286.759L104.634,287.19M101.711,285.286L101.968,285.187M104.087,286.376L104.36,286.759M101.202,285.649L101.455,285.44M103.816,286.042L104.087,286.376M100.701,286.226L100.951,285.911M103.547,285.758L103.816,286.042M100.206,287.001L100.453,286.59M103.279,285.527L103.547,285.758M103.014,285.349L103.279,285.527M105.743,289.33L106.023,289.953M107.714,294.094L107.996,294.795M106.304,290.605L106.585,291.279M107.432,293.386L107.714,294.094M107.996,294.795L108.278,295.478M111.766,299.073L112.015,298.722M108.278,295.478L108.558,296.137M107.149,292.676L107.432,293.386M106.585,291.279L106.867,291.972L107.149,292.676M108.558,296.137L108.838,296.762M109.116,297.344L109.393,297.875M109.667,298.346L109.939,298.748M110.209,299.073L110.476,299.313M110.74,299.463L111.002,299.517M111.26,299.471L111.515,299.323M108.838,296.762L109.116,297.344M109.393,297.875L109.667,298.346M109.939,298.748L110.209,299.073M111.002,299.517L111.26,299.471M111.515,299.323L111.766,299.073M110.476,299.313L110.74,299.463M112.26,298.273L112.503,297.732M113.914,293.009L114.145,292.076L114.376,291.134L114.607,290.193L114.838,289.265L115.07,288.361L115.303,287.488M115.453,286.958L115.303,287.488M113.45,294.796L113.683,293.919M113.216,295.626L113.45,294.796M112.981,296.399L113.216,295.626M112.743,297.104L112.981,296.399M112.503,297.732L112.743,297.104M112.015,298.722L112.26,298.273M113.683,293.919L113.914,293.009M115.538,286.657L115.774,285.874M115.453,286.958L115.538,286.657M116.011,285.145L116.251,284.477M116.493,283.873L116.736,283.336M116.251,284.477L116.493,283.873M116.736,283.336L116.982,282.87M115.774,285.874L116.011,285.145M122.348,288.407L122.635,289.319M122.923,290.27L123.211,291.253M122.635,289.319L122.923,290.27M118.766,281.668L119.03,281.791M117.733,281.91L117.988,281.738M118.245,281.641L118.505,281.618M122.062,287.538L122.348,288.407M117.23,282.476L117.481,282.156M121.778,286.718L122.062,287.538M121.495,285.949L121.778,286.718M119.03,281.791L119.296,281.985M121.214,285.235L121.495,285.949M118.505,281.618L118.766,281.668M120.934,284.58L121.214,285.235M117.988,281.738L118.245,281.641M120.657,283.985L120.934,284.58M117.481,282.156L117.733,281.91M120.381,283.453L120.657,283.985M116.982,282.87L117.23,282.476M120.106,282.985L120.381,283.453M119.834,282.583L120.106,282.985M119.564,282.25L119.834,282.583M119.296,281.985L119.564,282.25M123.501,292.261L123.791,293.287M123.211,291.253L123.501,292.261M124.081,294.321L124.371,295.354L124.66,296.373L124.949,297.367M123.791,293.287L124.081,294.321M124.949,297.367L125.236,298.323M125.806,300.061L126.087,300.813M125.522,299.225L125.806,300.061M126.087,300.813L126.366,301.468M126.641,302.01L126.912,302.425M127.179,302.702L127.442,302.829M127.7,302.798L127.954,302.605M126.912,302.425L127.179,302.702M127.442,302.829L127.7,302.798M127.954,302.605L128.203,302.247M126.366,301.468L126.641,302.01M125.236,298.323L125.522,299.225M131.149,287.314L131.371,285.982M130.49,291.523L130.709,290.101L130.928,288.692L131.149,287.314M130.051,294.335L130.27,292.941L130.49,291.523M131.371,285.982L131.595,284.71L131.821,283.509M129.607,296.965L129.83,295.683M129.382,298.16L129.607,296.965M129.154,299.25L129.382,298.16M128.922,300.217L129.154,299.25M128.687,301.046L128.922,300.217M128.447,301.726L128.687,301.046M128.203,302.247L128.447,301.726M129.83,295.683L130.051,294.335M132.28,281.352L132.513,280.409L132.749,279.561M132.049,282.387L132.28,281.352M131.821,283.509L132.049,282.387M133.23,278.162L133.475,277.611L133.722,277.159M132.988,278.812L133.23,278.162M132.749,279.561L132.988,278.812M138.304,283.043L138.593,284.114M133.722,277.159L133.972,276.804M140.065,290.486L140.363,291.93M138.884,285.257L139.177,286.47M137.168,279.521L137.449,280.285M136.613,278.231L136.889,278.836M138.593,284.114L138.884,285.257M137.732,281.128L138.017,282.047L138.304,283.043M140.963,294.922L141.263,296.445L141.564,297.965L141.863,299.464L142.161,300.922L142.458,302.314M137.449,280.285L137.732,281.128M136.338,277.706L136.613,278.231M136.889,278.836L137.168,279.521M135.796,276.901L136.066,277.262M135.262,276.431L135.528,276.624M139.767,289.09L140.065,290.486M140.363,291.93L140.663,293.413L140.963,294.922M142.458,302.314L142.752,303.615L143.042,304.799L143.329,305.838M143.368,305.959L143.329,305.838M135.528,276.624L135.796,276.901M136.066,277.262L136.338,277.706M134.999,276.325L135.262,276.431M139.471,287.749L139.767,289.09M134.481,276.38L134.739,276.307M139.177,286.47L139.471,287.749M134.739,276.307L134.999,276.325M148.999,274.628L149.226,273.362M143.611,306.703L143.887,307.367M143.368,305.959L143.611,306.703M148.775,276.036L148.999,274.628M149.457,272.236L149.692,271.247M144.422,307.998L144.679,307.925M149.692,271.247L149.93,270.392M143.887,307.367L144.158,307.806L144.422,307.998M148.338,279.27L148.555,277.585M146.072,301.835L146.283,300.012M145.856,303.468L146.072,301.835M145.406,306.048L145.634,304.881M146.49,298.036L146.695,295.944M147.099,291.567L147.301,289.357L147.504,287.177M146.898,293.775L147.099,291.567M146.695,295.944L146.898,293.775M147.504,287.177L147.709,285.056L147.916,283.019L148.125,281.085L148.338,279.27M148.555,277.585L148.775,276.036M145.634,304.881L145.856,303.468M144.679,307.925L144.928,307.578M146.283,300.012L146.49,298.036M149.93,270.392L150.172,269.664L150.417,269.057M150.665,268.567L150.915,268.187M149.226,273.362L149.457,272.236M150.417,269.057L150.665,268.567M152.205,267.748L152.47,267.924M153.276,268.928L153.548,269.418M152.47,267.924L152.737,268.18M151.168,267.911L151.424,267.733M150.915,268.187L151.168,267.911M151.943,267.656L152.205,267.748M151.682,267.65L151.943,267.656M151.424,267.733L151.682,267.65M144.928,307.578L145.171,306.951L145.406,306.048M158.506,291.361L158.818,293.533M154.94,273.068L155.224,274.051M158.818,293.533L159.132,295.779M157.279,283.621L157.582,285.402M156.978,281.946L157.279,283.621M156.384,278.913L156.68,280.377M155.799,276.289L156.09,277.551M156.68,280.377L156.978,281.946M158.196,289.277L158.506,291.361M156.09,277.551L156.384,278.913M157.888,287.289L158.196,289.277M155.511,275.123L155.799,276.289M157.582,285.402L157.888,287.289M155.224,274.051L155.511,275.123M160.078,302.771L160.393,305.092M159.132,295.779L159.447,298.084L159.762,300.423L160.078,302.771M160.393,305.092L160.706,307.347L161.016,309.487M161.322,311.461L161.623,313.21M161.916,314.675L162.201,315.794M162.477,316.51L162.741,316.772M161.623,313.21L161.916,314.675M162.201,315.794L162.477,316.51M162.741,316.772L162.994,316.54M161.016,309.487L161.322,311.461M163.883,310.447L164.078,307.745M164.358,302.926L164.264,304.68M164.078,307.745L164.264,304.68M163.678,312.72L163.883,310.447M163.463,314.511L163.678,312.72M163.235,315.789L163.463,314.511M162.994,316.54L163.235,315.789M154.658,272.174L154.94,273.068M164.358,302.926L164.444,301.33M154.377,271.363L154.658,272.174M154.099,270.635L154.377,271.363M153.823,269.987L154.099,270.635M153.548,269.418L153.823,269.987M134.225,276.545L134.481,276.38M133.972,276.804L134.225,276.545M165.125,287.017L164.965,290.409M164.444,301.33L164.619,297.779L164.792,294.112L164.965,290.409M152.737,268.18L153.005,268.515L153.276,268.928M165.314,283.173L165.494,279.752L165.679,276.517M165.138,286.742L165.314,283.173M165.125,287.017L165.138,286.742M165.868,273.495L166.063,270.701L166.264,268.142M165.679,276.517L165.868,273.495M166.47,265.819L166.682,263.723L166.899,261.846L167.121,260.173L167.347,258.689M198.675,304.438L198.643,304.423M167.347,258.689L167.578,257.378M176.396,231.571L176.62,229.821M176.841,227.923L177.058,225.87M176.62,229.821L176.841,227.923M175.475,237.285L175.709,236.031M175.239,238.436L175.475,237.285M174.761,240.465L175.001,239.494M175.709,236.031L175.941,234.667M175.001,239.494L175.239,238.436M176.17,233.183L176.396,231.571M175.941,234.667L176.17,233.183M177.058,225.87L177.272,223.653M169.271,251.641L169.52,251.14M172.292,246.826L172.543,246.382M174.276,242.177L174.519,241.357M174.032,242.931L174.276,242.177M173.786,243.624L174.032,242.931M173.539,244.264L173.786,243.624M173.292,244.855L173.539,244.264M172.543,246.382L172.793,245.909M170.273,249.863L170.526,249.484M170.022,250.26L170.273,249.863M170.526,249.484L170.778,249.117L171.031,248.754M171.536,248.021L171.788,247.641M171.031,248.754L171.283,248.391L171.536,248.021M169.52,251.14L169.77,250.683L170.022,250.26M172.04,247.243L172.292,246.826M172.793,245.909L173.043,245.402M171.788,247.641L172.04,247.243M168.531,253.516L168.776,252.817L169.023,252.196L169.271,251.641M168.289,254.306L168.531,253.516M167.812,256.221L168.049,255.203L168.289,254.306M167.578,257.378L167.812,256.221M173.043,245.402L173.292,244.855M166.264,268.142L166.47,265.819M174.519,241.357L174.761,240.465M198.378,304.091L198.643,304.423M196.447,297.577L196.729,298.813L197.01,299.981M195.597,293.647L195.881,294.979L196.165,296.294M195.313,292.313L195.597,293.647M196.165,296.294L196.447,297.577M194.745,289.68L195.029,290.987M194.649,289.246L194.745,289.68M195.029,290.987L195.313,292.313M197.288,301.062L197.565,302.034L197.839,302.877L198.11,303.569L198.378,304.091M197.01,299.981L197.288,301.062M189.988,271.653L190.268,272.712M177.69,218.701L177.893,215.961M177.483,221.265L177.69,218.701M178.484,206.724L178.675,203.355M178.093,213.045L178.29,209.961M177.893,215.961L178.093,213.045M178.864,199.89L179.052,196.373M178.675,203.355L178.864,199.89M179.052,196.373L179.241,192.866L179.432,189.445L179.627,186.205L179.829,183.254L180.039,180.715M177.272,223.653L177.483,221.265M178.29,209.961L178.484,206.724M180.039,180.715L180.26,178.719L180.496,177.397M189.706,270.523L189.988,271.653M180.496,177.397L180.749,176.869M188.554,264.851L188.847,266.493L189.136,267.967M185.3,232.548L185.661,237.451L186.013,241.954M181.621,180.837L181.95,184.062M183.031,198.279L183.41,204.003M183.794,209.919L184.177,215.861M183.41,204.003L183.794,209.919M184.177,215.861L184.557,221.684M184.932,227.275L185.3,232.548M184.557,221.684L184.932,227.275M186.013,241.954L186.356,246.048M182.297,188.136L182.659,192.93L183.031,198.279M186.691,249.739L187.018,253.047L187.337,255.997L187.65,258.619L187.957,260.946L188.258,263.013L188.554,264.851M186.356,246.048L186.691,249.739M181.95,184.062L182.297,188.136M189.136,267.967L189.422,269.303L189.706,270.523M193.054,282.518L193.334,283.617M194.179,287.147L194.462,288.398M194.649,289.246L194.462,288.398M193.897,285.932L194.179,287.147M193.615,284.754L193.897,285.932M193.334,283.617L193.615,284.754M190.548,273.718L190.826,274.687M192.216,279.435L192.495,280.43M191.938,278.465L192.216,279.435M191.382,276.574L191.66,277.514L191.938,278.465M190.826,274.687L191.104,275.635L191.382,276.574M190.268,272.712L190.548,273.718M192.774,281.457L193.054,282.518M192.495,280.43L192.774,281.457M181.02,177.232L181.31,178.549L181.621,180.837M198.675,304.438L198.904,304.551M205.303,271.604L205.555,271.198L205.809,270.898M198.904,304.551L199.16,304.463M203.125,280.472L203.358,279.017M199.906,302.858L200.147,301.888M199.661,303.616L199.906,302.858M202.436,285.413L202.664,283.683M202.893,282.031L203.125,280.472M201.305,294.516L201.531,292.719M200.849,297.873L201.078,296.244M201.757,290.882L201.983,289.036L202.209,287.205M201.531,292.719L201.757,290.882M202.209,287.205L202.436,285.413M202.664,283.683L202.893,282.031M200.618,299.374L200.849,297.873M201.078,296.244L201.305,294.516M205.052,272.12L205.303,271.604M203.594,277.673L203.831,276.447L204.071,275.341L204.313,274.356M203.358,279.017L203.594,277.673M204.557,273.493L204.804,272.748L205.052,272.12M204.313,274.356L204.557,273.493M199.413,304.152L199.661,303.616M200.147,301.888L200.384,300.72M199.16,304.463L199.413,304.152M200.384,300.72L200.618,299.374M211.783,286.906L212.07,288.624M212.358,290.415L212.647,292.269M212.07,288.624L212.358,290.415M208.711,273.688L208.984,274.454M208.171,272.408L208.44,273.006M207.106,270.853L207.37,271.115M206.065,270.699L206.323,270.598M207.636,271.462L207.902,271.893M211.497,285.267L211.783,286.906M206.583,270.592L206.844,270.678M211.212,283.712L211.497,285.267M208.984,274.454L209.257,275.304M210.929,282.244L211.212,283.712M208.44,273.006L208.711,273.688M210.647,280.865L210.929,282.244M207.902,271.893L208.171,272.408M210.366,279.575L210.647,280.865M207.37,271.115L207.636,271.462M210.087,278.375L210.366,279.575M206.844,270.678L207.106,270.853M209.809,277.264L210.087,278.375M206.323,270.598L206.583,270.592M209.532,276.241L209.809,277.264M209.257,275.304L209.532,276.241M205.809,270.898L206.065,270.699M180.749,176.869L181.02,177.232M212.647,292.269L212.937,294.174M213.227,296.114L213.518,298.071M212.937,294.174L213.227,296.114M213.518,298.071L213.808,300.02M214.385,303.783L214.672,305.528L214.956,307.132M214.097,301.935L214.385,303.783M215.237,308.552L215.514,309.743L215.786,310.665M213.808,300.02L214.097,301.935M216.054,311.274L216.316,311.537M215.786,310.665L216.054,311.274M214.956,307.132L215.237,308.552M216.316,311.537L216.572,311.424M216.822,310.917L217.066,310.009L217.303,308.707M217.534,307.028L217.761,305.007M217.303,308.707L217.534,307.028M217.982,302.685L218.201,300.115M217.761,305.007L217.982,302.685M218.201,300.115L218.416,297.356M216.572,311.424L216.822,310.917M218.629,294.467L218.842,291.507M219.055,288.535L219.268,285.6M218.842,291.507L219.055,288.535M219.268,285.6L219.483,282.746L219.7,280.009M218.416,297.356L218.629,294.467M219.7,280.009L219.919,277.418L220.141,274.992L220.366,272.746L220.594,270.684L220.825,268.811L221.059,267.122M221.296,265.612L221.535,264.274M222.268,261.181L222.516,260.421L222.766,259.776M222.021,262.069L222.268,261.181M221.535,264.274L221.777,263.096M223.271,258.796L223.526,258.44M223.018,259.238L223.271,258.796M223.526,258.44L223.781,258.163M222.766,259.776L223.018,259.238M221.059,267.122L221.296,265.612M221.777,263.096L222.021,262.069M224.554,257.733L224.814,257.704M226.648,258.786L226.912,259.11M225.596,257.909L225.858,258.066M227.177,259.477L227.443,259.889M231.194,272.223L230.971,271.025M226.121,258.265L226.384,258.505M230.693,269.646L230.971,271.025M225.074,257.726L225.335,257.795M230.416,268.379L230.693,269.646M224.038,257.957L224.296,257.815M230.14,267.216L230.416,268.379M229.866,266.151L230.14,267.216M226.912,259.11L227.177,259.477M229.593,265.175L229.866,266.151M226.384,258.505L226.648,258.786M229.321,264.282L229.593,265.175M225.858,258.066L226.121,258.265M229.051,263.465L229.321,264.282M225.335,257.795L225.596,257.909M228.781,262.719L229.051,263.465M224.814,257.704L225.074,257.726M228.512,262.039L228.781,262.719M224.296,257.815L224.554,257.733M228.243,261.42L228.512,262.039M223.781,258.163L224.038,257.957M227.976,260.858L228.243,261.42M227.709,260.348L227.976,260.858M227.443,259.889L227.709,260.348M236.254,318.556L236.546,321.23M233.851,292.72L234.15,295.769M231.25,272.525L231.532,274.155M234.15,295.769L234.45,298.953M232.675,282.133L232.966,284.528M232.387,279.904L232.675,282.133M233.259,287.092L233.554,289.824M232.966,284.528L233.259,287.092M233.554,289.824L233.851,292.72M234.45,298.953L234.752,302.246L235.054,305.61L235.356,308.996L235.658,312.337M235.957,315.556L236.254,318.556M235.658,312.337L235.957,315.556M236.546,321.23L236.832,323.459L237.111,325.118L237.38,326.089L237.639,326.264L237.888,325.564M231.815,275.922L232.1,277.836M231.532,274.155L231.815,275.922M231.194,272.223L231.25,272.525M232.1,277.836L232.387,279.904M240.293,270.401L240.495,265.704M242.756,237.849L243,236.413L243.245,235.107M238.767,313.796L238.964,308.959M238.349,321.403L238.563,317.988L238.767,313.796M239.343,298.006L239.529,292.23L239.715,286.465L239.904,280.842L240.097,275.463M238.964,308.959L239.155,303.639L239.343,298.006M243.245,235.107L243.491,233.905M240.701,261.394L240.913,257.478M246.726,220.519L246.974,219.331M247.221,218.101L247.468,216.831M246.974,219.331L247.221,218.101M245.732,224.871L245.981,223.838M245.483,225.875L245.732,224.871M246.23,222.771L246.478,221.665M245.981,223.838L246.23,222.771M246.478,221.665L246.726,220.519M247.468,216.831L247.714,215.523M244.485,229.743L244.734,228.78M244.235,230.723L244.485,229.743M244.734,228.78L244.984,227.821L245.233,226.856L245.483,225.875M240.495,265.704L240.701,261.394M242.276,241.215L242.515,239.44L242.756,237.849M241.13,253.947L241.351,250.781M243.491,233.905L243.738,232.787M241.577,247.956L241.807,245.442M240.913,257.478L241.13,253.947M241.351,250.781L241.577,247.956M241.807,245.442L242.04,243.205L242.276,241.215M243.987,231.732L244.235,230.723M240.097,275.463L240.293,270.401M243.738,232.787L243.987,231.732M238.124,323.944L238.349,321.403M249.934,203.477L250.184,202.37L250.435,201.382M248.699,210.042L248.945,208.656L249.191,207.289M248.453,211.434L248.699,210.042M249.191,207.289L249.438,205.957M247.961,214.184L248.207,212.818M247.714,215.523L247.961,214.184M248.207,212.818L248.453,211.434M250.435,201.382L250.688,200.534L250.942,199.85L251.198,199.35M249.438,205.957L249.686,204.68L249.934,203.477M251.457,199.053L251.718,198.974M251.981,199.124L252.247,199.509M251.718,198.974L251.981,199.124M251.198,199.35L251.457,199.053M252.247,199.509L252.515,200.13M237.888,325.564L238.124,323.944M252.515,200.13L252.786,200.98M256.124,221.036L256.401,222.702M253.609,204.765L253.887,206.364M253.333,203.317L253.609,204.765M253.887,206.364L254.166,208.087M253.058,202.048L253.333,203.317M255.287,215.582L255.566,217.458M255.006,213.679L255.287,215.582M255.566,217.458L255.845,219.283M254.166,208.087L254.446,209.901M252.786,200.98L253.058,202.048M254.446,209.901L254.726,211.775L255.006,213.679M256.401,222.702L256.677,224.266L256.952,225.719L257.226,227.054L257.498,228.265L257.769,229.352L258.039,230.314L258.308,231.152L258.575,231.87L258.841,232.469L259.106,232.954L259.37,233.329L259.633,233.599M255.845,219.283L256.124,221.036M259.895,233.766L260.156,233.836M260.416,233.81L260.675,233.693M260.156,233.836L260.416,233.81M260.675,233.693L260.933,233.487M259.633,233.599L259.895,233.766M266.193,209.098L266.437,207.07M266.579,205.881L266.437,207.07M265.949,211.087L266.193,209.098M262.721,229.65L262.973,228.761M261.704,232.35L261.959,231.802M262.214,231.17L262.468,230.452M265.704,213.022L265.949,211.087M261.191,233.193L261.448,232.814M265.459,214.89L265.704,213.022M265.214,216.681L265.459,214.89M262.973,228.761L263.225,227.784M264.967,218.388L265.214,216.681M262.468,230.452L262.721,229.65M264.721,220.007L264.967,218.388M261.959,231.802L262.214,231.17M264.473,221.535L264.721,220.007M261.448,232.814L261.704,232.35M264.225,222.97L264.473,221.535M260.933,233.487L261.191,233.193M263.976,224.311L264.225,222.97M263.726,225.56L263.976,224.311M263.476,226.717L263.726,225.56M263.225,227.784L263.476,226.717M275.82,241.156L276.087,242.175M266.681,205.023L266.926,202.983L267.17,200.979M266.579,205.881L266.681,205.023M279.751,246.376L280.01,246.243L280.268,246.071L280.527,245.862M267.17,200.979L267.416,199.045M267.663,197.219L267.91,195.544M268.16,194.065L268.412,192.829M268.666,191.882L268.923,191.267M276.087,242.175L276.353,243.055L276.618,243.808M267.416,199.045L267.663,197.219M268.412,192.829L268.666,191.882M267.91,195.544L268.16,194.065M268.923,191.267L269.183,191.022L269.446,191.177M271.655,206.194L271.939,209.214M271.089,200.582L271.371,203.295M270.53,195.961L270.808,198.118M271.371,203.295L271.655,206.194M270.254,194.158L270.53,195.961M270.808,198.118L271.089,200.582M269.446,191.177L269.712,191.75M271.939,209.214L272.223,212.293L272.507,215.371L272.791,218.397M276.618,243.808L276.882,244.445M277.145,244.978L277.408,245.417L277.67,245.77M273.355,224.124L273.635,226.763M277.67,245.77L277.932,246.048M273.913,229.224L274.19,231.495M277.932,246.048L278.193,246.256M272.791,218.397L273.074,221.327M278.193,246.256L278.453,246.403M274.739,235.453L275.011,237.144M278.453,246.403L278.713,246.493M275.282,238.652L275.552,239.985M278.713,246.493L278.973,246.532M273.074,221.327L273.355,224.124M278.973,246.532L279.233,246.523M274.19,231.495L274.466,233.571M276.882,244.445L277.145,244.978M273.635,226.763L273.913,229.224M274.466,233.571L274.739,235.453M275.011,237.144L275.282,238.652M279.492,246.471L279.751,246.376M275.552,239.985L275.82,241.156M279.233,246.523L279.492,246.471M269.712,191.75L269.982,192.747L270.254,194.158M289.073,191.339L289.317,187.798L289.562,184.417M288.83,194.947L289.073,191.339M285.38,231.957L285.631,230.363M285.128,233.42L285.38,231.957M286.876,220.116L287.122,217.552M286.38,224.707L286.628,222.499M282.071,243.788L282.328,243.292M287.858,208.767L288.102,205.494M286.628,222.499L286.876,220.116M287.613,211.875L287.858,208.767M285.631,230.363L285.881,228.63M287.368,214.805L287.613,211.875M285.881,228.63L286.131,226.747M287.122,217.552L287.368,214.805M284.876,234.764L285.128,233.42M282.584,242.745L282.84,242.143M288.102,205.494L288.345,202.076L288.588,198.546L288.83,194.947M290.563,174.921L290.822,174.222M290.057,178.599L290.308,176.423L290.563,174.921M289.562,184.417L289.808,181.309L290.057,178.599M290.822,174.222L291.085,174.435M291.353,175.633L291.625,177.844M291.085,174.435L291.353,175.633M291.822,180.108L291.625,177.844M284.623,235.995L284.876,234.764M284.37,237.124L284.623,235.995M284.116,238.158L284.37,237.124M283.861,239.104L284.116,238.158M283.607,239.97L283.861,239.104M283.352,240.761L283.607,239.97M283.096,241.484L283.352,240.761M282.84,242.143L283.096,241.484M281.815,244.238L282.071,243.788M282.328,243.292L282.584,242.745M281.557,244.644L281.815,244.238M281.3,245.007L281.557,244.644M281.042,245.33L281.3,245.007M280.785,245.615L281.042,245.33M280.527,245.862L280.785,245.615M286.131,226.747L286.38,224.707M291.822,180.108L291.902,181.04L292.183,185.138M292.754,195.474L293.042,201.352M292.468,190.006L292.754,195.474M292.183,185.138L292.468,190.006M293.042,201.352L293.331,207.449L293.619,213.585L293.906,219.609M294.192,225.396L294.476,230.857M293.906,219.609L294.192,225.396M295.038,240.597L295.315,244.834M294.476,230.857L294.758,235.935M295.591,248.652L295.864,252.072L296.136,255.119L296.406,257.826L296.675,260.227L296.942,262.357L297.208,264.249L297.474,265.936L297.738,267.449L298.002,268.815L298.265,270.062L298.528,271.211L298.791,272.284M295.315,244.834L295.591,248.652M301.93,284.052L302.191,285.157L302.453,286.289M301.668,282.977L301.93,284.052M300.884,279.927L301.146,280.916M300.623,278.961L300.884,279.927M300.361,278.015L300.623,278.961M302.972,288.604L302.714,287.445M302.453,286.289L302.714,287.445M299.838,276.152L300.1,277.081L300.361,278.015M299.577,275.22L299.838,276.152M298.791,272.284L299.053,273.299M299.315,274.273L299.577,275.22M299.053,273.299L299.315,274.273M301.407,281.932L301.668,282.977M301.146,280.916L301.407,281.932M294.758,235.935L295.038,240.597" style="fill:none;stroke:rgb(255,0,0);stroke-width:2px;"/>
            </g>
            <g transform="matrix(1,0,0,1,-50.6686,-10.567)">
                <path d="M313.515,175.895L313.772,175.495M302.976,192.299L303.237,193.487L303.499,194.681L303.76,195.87L304.021,197.044M302.972,192.283L302.976,192.299M304.021,197.044L304.282,198.19L304.543,199.294L304.803,200.34M305.063,201.312L305.323,202.193M305.582,202.965L305.841,203.611M313.257,176.4L313.515,175.895M306.1,204.113L306.358,204.458M304.803,200.34L305.063,201.312M305.323,202.193L305.582,202.965M305.841,203.611L306.1,204.113M311.974,180.535L312.23,179.492M306.616,204.632L306.873,204.625M306.358,204.458L306.616,204.632M306.873,204.625L307.13,204.43M310.951,185.685L311.206,184.265M311.718,181.681L311.974,180.535M308.662,199.443L308.916,198.086M308.152,201.773L308.407,200.679M309.17,196.63L309.424,195.1M309.933,191.917L310.187,190.31L310.442,188.724M309.679,193.521L309.933,191.917M309.424,195.1L309.679,193.521M310.442,188.724L310.696,187.176L310.951,185.685M311.206,184.265L311.462,182.927L311.718,181.681M308.407,200.679L308.662,199.443M308.916,198.086L309.17,196.63M314.03,175.196L314.288,174.996M312.23,179.492L312.486,178.556M313,177.011L313.257,176.4M313.772,175.495L314.03,175.196M312.486,178.556L312.743,177.729L313,177.011M314.288,174.996L314.546,174.892M314.804,174.882L315.063,174.963M314.546,174.892L314.804,174.882M315.063,174.963L315.321,175.133M307.386,204.043L307.642,203.467M307.897,202.707L308.152,201.773M307.13,204.43L307.386,204.043M307.642,203.467L307.897,202.707M317.133,178.7L317.391,179.541L317.65,180.464M318.79,185.509L318.686,184.974M318.427,183.726L318.686,184.974M318.168,182.557L318.427,183.726M317.909,181.469L318.168,182.557M317.65,180.464L317.909,181.469M321.529,202.415L321.787,204.006M322.302,206.868L322.559,208.073M318.79,185.509L318.945,186.301L319.204,187.703M319.463,189.177L319.721,190.716M319.98,192.314L320.238,193.96M321.013,199.062L321.271,200.758M320.238,193.96L320.497,195.644L320.755,197.35L321.013,199.062M321.271,200.758L321.529,202.415M321.787,204.006L322.044,205.501L322.302,206.868M319.204,187.703L319.463,189.177M319.721,190.716L319.98,192.314M322.559,208.073L322.816,209.082M323.073,209.86L323.33,210.378M322.816,209.082L323.073,209.86M323.33,210.378L323.587,210.607L323.844,210.525M324.871,206.946L325.128,205.284M324.614,208.32L324.871,206.946M325.128,205.284L325.386,203.366M323.844,210.525L324.101,210.118M324.357,209.382L324.614,208.32M324.101,210.118L324.357,209.382M325.429,203.008L325.386,203.366M316.874,177.941L317.133,178.7M325.429,203.008L325.643,201.233M316.356,176.671L316.615,177.265M316.097,176.16L316.356,176.671M315.58,175.39L315.838,175.733M315.321,175.133L315.58,175.39M315.838,175.733L316.097,176.16M316.615,177.265L316.874,177.941M328.228,177.607L328.487,175.749M327.192,186.453L327.451,184.059M325.901,198.928L326.159,196.498M326.675,191.454L326.934,188.929M326.159,196.498L326.417,193.992L326.675,191.454M326.934,188.929L327.192,186.453M327.71,181.774L327.969,179.619L328.228,177.607M327.451,184.059L327.71,181.774M325.643,201.233L325.901,198.928M328.746,174.051L329.006,172.513M342.297,221.282L342.553,221.336M328.487,175.749L328.746,174.051M329.006,172.513L329.265,171.134" style="fill:none;stroke:rgb(255,0,0);stroke-width:2px;"/>
            </g>
            <g transform="matrix(1,0,0,1,-50.6686,-82.8464)">
                <path d="M329.524,242.189L329.783,241.113M330.042,240.18L330.301,239.381L330.56,238.707M355.005,201.129L355.271,199.594M355.538,197.954L355.806,196.207M355.271,199.594L355.538,197.954M353.944,206.322L354.208,205.155M353.68,207.411L353.944,206.322M356.074,194.349L356.343,192.381M354.208,205.155L354.473,203.904M353.416,208.43L353.68,207.411M354.739,202.564L355.005,201.129M354.473,203.904L354.739,202.564M353.153,209.384L353.416,208.43M350.531,217.09L350.793,216.333M350.269,217.885L350.531,217.09M352.365,211.932L352.627,211.128M352.103,212.701L352.365,211.932M351.055,215.602L351.317,214.884L351.578,214.168L351.84,213.443M350.793,216.333L351.055,215.602M351.84,213.443L352.103,212.701M350.007,218.733L350.269,217.885M349.744,219.651L350.007,218.733M352.89,210.281L353.153,209.384M352.627,211.128L352.89,210.281M355.806,196.207L356.074,194.349M331.337,237.361L331.596,237.112M330.819,238.151L331.078,237.705L331.337,237.361M329.783,241.113L330.042,240.18M330.56,238.707L330.819,238.151M329.265,243.413L329.524,242.189M333.404,237.599L333.662,237.949M332.371,236.876L332.63,236.952M335.463,242.316L335.72,243.242M334.435,239.397L334.692,240.016M335.976,244.254L336.233,245.358M331.596,237.112L331.854,236.952M334.949,240.707L335.207,241.472M339.281,267.338L339.532,269.927M333.92,238.365L334.177,238.847M339.029,264.846L339.281,267.338M332.888,237.1L333.146,237.316M338.777,262.465L339.029,264.846M331.854,236.952L332.113,236.875M338.524,260.204L338.777,262.465M335.72,243.242L335.976,244.254M338.271,258.069L338.524,260.204M335.207,241.472L335.463,242.316M338.018,256.06L338.271,258.069M334.692,240.016L334.949,240.707M337.764,254.178L338.018,256.06M334.177,238.847L334.435,239.397M337.509,252.421L337.764,254.178M333.662,237.949L333.92,238.365M337.255,250.785L337.509,252.421M333.146,237.316L333.404,237.599M337,249.265L337.255,250.785M332.63,236.952L332.888,237.1M336.744,247.858L337,249.265M332.113,236.875L332.371,236.876M336.489,246.557L336.744,247.858M336.233,245.358L336.489,246.557M340.284,278.044L340.535,280.75M339.532,269.927L339.783,272.593L340.034,275.31L340.284,278.044M340.535,280.75L340.785,283.378M341.036,285.865L341.286,288.141L341.538,290.129L341.79,291.748L342.043,292.918L342.297,293.562M340.785,283.378L341.036,285.865M346.02,250.765L346.29,246.91M349.482,220.655L349.744,219.651M346.56,243.323L346.829,240.021L347.097,237.009M344.397,276.666L344.666,272.419M344.128,280.641L344.397,276.666M343.596,287.338L343.861,284.232M343.333,289.875L343.596,287.338M343.861,284.232L344.128,280.641M344.666,272.419L344.937,268.012L345.208,263.555L345.479,259.144M347.097,237.009L347.365,234.283M348.163,227.676L348.428,225.933M345.479,259.144L345.75,254.859M348.428,225.933L348.692,224.381M346.29,246.91L346.56,243.323M347.898,229.635L348.163,227.676M345.75,254.859L346.02,250.765M347.365,234.283L347.631,231.83L347.898,229.635M348.956,222.999L349.219,221.764L349.482,220.655M348.692,224.381L348.956,222.999M343.071,291.782L343.333,289.875M342.811,293.03L343.071,291.782M342.553,293.615L342.811,293.03M356.343,192.381L356.613,190.304L356.883,188.122M358.515,173.565L358.788,171.134M357.97,178.558L358.242,176.054L358.515,173.565M357.425,183.477L357.697,181.041L357.97,178.558M357.154,185.842L357.425,183.477M356.883,188.122L357.154,185.842" style="fill:none;stroke:rgb(255,0,0);stroke-width:2px;"/>
            </g>
            <g transform="matrix(1,0,0,1,-50.6686,-97.9836)">
                <path d="M358.098,324.141L359.021,139.678M370.012,340.207L358.098,324.141M400.378,259.319L401.21,259.704M414.32,263.008L412.296,262.729L410.323,262.392M416.396,263.23L414.32,263.008M410.323,262.392L408.401,261.993L406.528,261.529M418.37,263.384L416.396,263.23M404.706,260.996L402.933,260.389L401.21,259.704M406.528,261.529L404.706,260.996M412.899,261.971L410.929,261.498M418.522,263.029L416.989,262.779M410.929,261.498L409.009,260.972L407.139,260.386M416.989,262.779L414.919,262.396L412.899,261.971M406.813,290.267L406.184,291.729M405.708,293.307L405.399,295.011M406.184,291.729L405.708,293.307M405.277,296.851L405.361,298.837L405.678,300.98L406.254,303.29L407.122,305.778L408.32,308.453M409.542,310.688L408.32,308.453M416.059,281.816L414.562,282.616L413.151,283.48M405.399,295.011L405.277,296.851M427.782,289.133L426.525,290.257M422.09,301.317L422.068,301.042M426.525,290.257L425.399,291.474L424.414,292.79L423.582,294.21M432.267,286.288L430.66,287.151M423.582,294.21L422.916,295.738M429.163,288.099L427.782,289.133M433.978,285.506L432.267,286.288M430.66,287.151L429.163,288.099M422.43,297.383L422.141,299.148L422.068,301.042M422.916,295.738L422.43,297.383M437.694,284.186L435.788,284.806M446.215,282.55L443.955,282.827M435.788,284.806L433.978,285.506M439.692,283.649L437.694,284.186M447.338,282.463L446.215,282.55M443.955,282.827L441.78,283.195L439.692,283.649M413.151,283.48L411.832,284.41M410.608,285.412L409.487,286.492M408.475,287.656L407.58,288.912M411.832,284.41L410.608,285.412M409.487,286.492L408.475,287.656M407.58,288.912L406.813,290.267M433.006,276.997L430.833,277.331M424.739,278.636L422.852,279.17M428.731,277.716L426.699,278.152M452.957,276.734L450.202,276.469M437.561,276.498L435.248,276.719M442.398,276.251L439.944,276.34M447.525,276.307L444.925,276.238M421.038,279.753L419.3,280.387M417.639,281.074L416.059,281.816M419.3,280.387L417.639,281.074M426.699,278.152L424.739,278.636M422.852,279.17L421.038,279.753M430.833,277.331L428.731,277.716M435.248,276.719L433.006,276.997M439.944,276.34L437.561,276.498M444.925,276.238L442.398,276.251M450.202,276.469L447.525,276.307M454.697,276.967L452.957,276.734M463.019,270.753L461.145,270.115" style="fill:none;stroke:black;stroke-width:2px;"/>
            </g>
            <g transform="matrix(-0.923255,0.384187,0.384187,0.923255,748.07,-198.539)">
                <path d="M456.624,210.443L458.063,210.443" style="fill:none;stroke:black;stroke-width:1px;"/>
            </g>
            <g transform="matrix(1,0,0,1,-50.6686,-44.7253)">
                <path d="M440.647,212.458L438.02,212.124M421.221,210.263L420.711,210.25L418.526,210.138M418.37,210.126L418.526,210.138M443.34,212.836L440.647,212.458M438.02,212.124L435.456,211.823M430.508,211.279L428.12,211.018M432.953,211.545L430.508,211.279M435.456,211.823L432.953,211.545M425.787,210.753L423.509,210.478M422.042,210.284L423.509,210.478M428.12,211.018L425.787,210.753M421.221,210.263L422.952,210.308M422.042,210.284L421.284,210.185L419.111,209.868M427.06,210.269L425.252,210.31L422.952,210.308M418.522,209.771L419.111,209.868M461.145,216.856L457.947,215.892L454.853,215.071" style="fill:none;stroke:black;stroke-width:2px;"/>
            </g>
            <g transform="matrix(0.923255,-0.384188,-0.384188,-0.923255,65.4557,541.719)">
                <path d="M458.001,210.752L458.173,210.752" style="fill:none;stroke:black;stroke-width:1px;"/>
            </g>
            <g transform="matrix(1,0,0,1,-50.6686,-43.0108)">
                <path d="M448.938,212.064L446.102,211.557M451.852,212.658L448.938,212.064M454.853,213.356L451.852,212.658" style="fill:none;stroke:black;stroke-width:2px;"/>
            </g>
            <g transform="matrix(0.923251,-0.384196,-0.384196,-0.923251,65.6158,541.956)">
                <path d="M458.118,211.028L459.38,211.028" style="fill:none;stroke:black;stroke-width:1px;"/>
            </g>
            <g transform="matrix(1,0,0,1,-50.6686,-71.792)">
                <path d="M446.102,240.338L443.34,239.902M400.378,233.128L399.54,232.742L397.924,231.879L396.364,230.918L394.865,229.849M394.736,229.741L394.865,229.849M407.139,234.194L405.321,233.542M394.736,229.741L393.432,228.663M393.414,228.646L393.432,228.663M405.321,233.542L403.556,232.816M392.178,227.454L393.414,228.646M403.556,232.816L401.844,232.009M392.178,227.454L392.072,227.351M391.013,226.153L392.072,227.351M401.844,232.009L400.189,231.114M391.013,226.153L390.791,225.902M389.92,224.732L390.791,225.902M400.189,231.114L398.594,230.123M389.92,224.732L389.602,224.305M388.911,223.186L389.602,224.305M398.594,230.123L397.063,229.026M388.911,223.186L388.516,222.546M387.997,221.509L388.516,222.546M397.063,229.026L395.602,227.814M387.997,221.509L387.55,220.614M387.191,219.694L387.55,220.614M395.602,227.814L394.217,226.478M387.191,219.694L386.722,218.494M386.505,217.735L386.722,218.494M394.217,226.478L392.918,225.005M386.505,217.735L386.057,216.172M385.954,215.624L386.057,216.172M392.918,225.005L391.715,223.384M385.954,215.624L385.582,213.634M385.557,213.356L385.582,213.634M391.715,223.384L390.622,221.604" style="fill:none;stroke:black;stroke-width:2px;"/>
            </g>
            <g transform="matrix(-0.656196,-0.75459,-0.75459,0.656196,766.363,170.568)">
                <path d="M357.958,291.794L362.786,291.794" style="fill:none;stroke:rgb(255,0,0);stroke-width:1.5px;"/>
            </g>
            <g transform="matrix(1,0,0,1,-50.6686,-92.9485)">
                <path d="M385.337,232.09L385.557,234.513M390.622,242.76L389.654,240.807" style="fill:none;stroke:black;stroke-width:2px;"/>
            </g>
            <g transform="matrix(1,0,0,1,-50.6686,-193.309)">
                <path d="M361.956,285.239L366.071,289.972M369.881,289.665L366.071,289.972" style="fill:none;stroke:rgb(255,0,0);stroke-width:1.5px;"/>
            </g>
            <g transform="matrix(1,0,0,1,-50.6686,-100.096)">
                <path d="M385.337,239.238L385.331,239.17M385.342,236.722L385.331,239.17M389.654,247.955L388.833,245.815M385.342,236.722L385.345,236.157M385.555,234.043L385.345,236.157" style="fill:none;stroke:black;stroke-width:2px;"/>
            </g>
            <g transform="matrix(-0.99677,0.0803071,0.0803071,0.99677,670.034,-218.586)">
                <path d="M369.873,285.751L374.98,285.751" style="fill:none;stroke:rgb(255,0,0);stroke-width:1.5px;"/>
            </g>
            <g transform="matrix(1,0,0,1,-50.6686,-105.091)">
                <path d="M388.833,250.811L388.182,248.472M385.555,239.039L385.67,237.883M386.003,236.183L385.67,237.883" style="fill:none;stroke:black;stroke-width:2px;"/>
            </g>
            <g transform="matrix(-0.99677,0.0803091,0.0803091,0.99677,679.808,-219.771)">
                <path d="M374.965,286.147L379.711,286.147" style="fill:none;stroke:rgb(255,0,0);stroke-width:1.5px;"/>
            </g>
            <g transform="matrix(-0.174593,-0.984641,-0.984641,0.174593,641.136,482.234)">
                <path d="M386.659,239.798L389.252,239.798" style="fill:none;stroke:black;stroke-width:2px;"/>
            </g>
            <g transform="matrix(-0.99677,0.0803081,0.0803081,0.99677,688.918,-220.875)">
                <path d="M379.696,286.516L384.133,286.516" style="fill:none;stroke:rgb(255,0,0);stroke-width:1.5px;"/>
            </g>
            <g transform="matrix(1,0,0,1,-50.6686,-116.287)">
                <path d="M386.003,247.379L386.362,245.543M386.719,244.331L386.362,245.543M387.729,257.115L387.509,254.335M386.719,244.331L387.485,241.733M387.747,241.074L387.485,241.733" style="fill:none;stroke:black;stroke-width:2px;"/>
            </g>
            <g transform="matrix(-0.99677,0.0803108,0.0803108,0.99677,697.455,-221.91)">
                <path d="M384.119,286.861L388.29,286.861" style="fill:none;stroke:rgb(255,0,0);stroke-width:1.5px;"/>
            </g>
            <g transform="matrix(1,0,0,1,-50.6686,-122.548)">
                <path d="M387.509,260.596L387.564,257.577M387.747,247.336L389.112,243.906M389.138,243.854L389.112,243.906" style="fill:none;stroke:black;stroke-width:2px;"/>
            </g>
            <g transform="matrix(-0.99677,0.0803064,0.0803064,0.99677,705.499,-222.883)">
                <path d="M388.277,287.187L392.214,287.187" style="fill:none;stroke:rgb(255,0,0);stroke-width:1.5px;"/>
            </g>
            <g transform="matrix(0.114012,-0.993479,-0.993479,-0.114012,539.763,546.949)">
                <path d="M386.105,248.509L389.397,248.509" style="fill:none;stroke:black;stroke-width:2px;"/>
            </g>
            <g transform="matrix(-0.99677,0.0803071,0.0803071,0.99677,713.103,-223.805)">
                <path d="M392.202,287.495L395.93,287.495" style="fill:none;stroke:rgb(255,0,0);stroke-width:1.5px;"/>
            </g>
            <g transform="matrix(1,0,0,1,-50.6686,-136.017)">
                <path d="M390.907,253.837L389.138,257.322M387.939,267.774L388.691,264.243M390.907,253.837L391.325,253.012M393.117,250.145L391.325,253.012" style="fill:none;stroke:black;stroke-width:2px;"/>
            </g>
            <g transform="matrix(-0.99677,0.0803107,0.0803107,0.99677,720.303,-224.679)">
                <path d="M395.919,287.786L399.45,287.786" style="fill:none;stroke:rgb(255,0,0);stroke-width:1.5px;"/>
            </g>
            <g transform="matrix(1,0,0,1,-50.6686,-143.478)">
                <path d="M388.691,271.705L389.883,267.908M393.117,257.607L394.215,255.85M395.852,253.676L394.215,255.85" style="fill:none;stroke:black;stroke-width:2px;"/>
            </g>
            <g transform="matrix(-0.99677,0.0803068,0.0803068,0.99677,727.115,-225.503)">
                <path d="M399.439,288.062L402.773,288.062" style="fill:none;stroke:rgb(255,0,0);stroke-width:1.5px;"/>
            </g>
            <g transform="matrix(-0.244562,-0.969634,-0.969634,0.244562,828.067,356.478)">
                <path d="M427.42,355.022L431.507,355.022" style="fill:none;stroke:rgb(0,0,255);stroke-width:1px;"/>
            </g>
            <g transform="matrix(0.386757,-0.922182,-0.922182,-0.386757,428.257,583.092)">
                <path d="M388.532,259.504L392.938,259.504" style="fill:none;stroke:black;stroke-width:2px;"/>
            </g>
            <g transform="matrix(-0.99677,0.0803046,0.0803046,0.99677,733.518,-226.278)">
                <path d="M402.763,288.321L405.883,288.321" style="fill:none;stroke:rgb(255,0,0);stroke-width:1.5px;"/>
            </g>
            <g transform="matrix(-0.244563,-0.969633,-0.969633,0.244563,822.49,369.142)">
                <path d="M424.881,346.518L438.336,346.518" style="fill:none;stroke:rgb(0,0,255);stroke-width:1px;"/>
            </g>
            <g transform="matrix(1,0,0,1,-50.6686,-159.906)">
                <path d="M395.852,270.104L397.877,267.413M399.202,265.934L397.877,267.413M391.587,280.272L393.884,275.948M399.202,265.934L402.413,262.346M403.267,261.536L402.413,262.346" style="fill:none;stroke:black;stroke-width:2px;"/>
            </g>
            <g transform="matrix(-0.99677,0.0803063,0.0803063,0.99677,739.461,-226.999)">
                <path d="M405.874,288.562L408.745,288.562" style="fill:none;stroke:rgb(255,0,0);stroke-width:1.5px;"/>
            </g>
            <g transform="matrix(-0.244564,-0.969633,-0.969633,0.244564,814.983,386.191)">
                <path d="M429.415,335.068L439.578,335.068" style="fill:none;stroke:rgb(0,0,255);stroke-width:1px;"/>
            </g>
            <g transform="matrix(1,0,0,1,-50.6686,-168.827)">
                <path d="M393.884,284.869L396.86,280.297M403.267,270.457L407.921,266.048M408.153,265.861L407.921,266.048" style="fill:none;stroke:black;stroke-width:2px;"/>
            </g>
            <g transform="matrix(-0.99677,0.0803032,0.0803032,0.99677,744.851,-227.651)">
                <path d="M408.736,288.78L411.297,288.78" style="fill:none;stroke:rgb(255,0,0);stroke-width:1.5px;"/>
            </g>
            <g transform="matrix(-0.244563,-0.969633,-0.969633,0.244563,809.271,399.162)">
                <path d="M432.792,326.357L440.595,326.357" style="fill:none;stroke:rgb(0,0,255);stroke-width:1px;"/>
            </g>
            <g transform="matrix(0.616126,-0.787647,-0.787647,-0.616126,317.288,591.233)">
                <path d="M395.692,272.828L401.777,272.828" style="fill:none;stroke:black;stroke-width:2px;"/>
            </g>
            <g transform="matrix(-0.99677,0.0803074,0.0803074,0.99677,749.422,-228.206)">
                <path d="M411.29,288.965L413.338,288.965" style="fill:none;stroke:rgb(255,0,0);stroke-width:1.5px;"/>
            </g>
            <g transform="matrix(-0.778444,0.627714,0.627714,0.778444,499.939,-386.672)">
                <path d="M407.36,287.116L414.521,287.116" style="fill:none;stroke:black;stroke-width:2px;"/>
            </g>
            <g transform="matrix(0.996777,-0.0802209,-0.0802209,-0.996777,-26.1483,414.133)">
                <path d="M413.335,289.052L413.442,289.052" style="fill:none;stroke:rgb(255,0,0);stroke-width:1.5px;"/>
            </g>
            <g transform="matrix(-0.244561,-0.969634,-0.969634,0.244561,804.874,409.146)">
                <path d="M435.372,319.653L441.397,319.653" style="fill:none;stroke:rgb(0,0,255);stroke-width:1px;"/>
            </g>
            <g transform="matrix(0.680154,-0.733069,-0.733069,-0.680154,281.786,588.443)">
                <path d="M399.524,277.712L406.311,277.712" style="fill:none;stroke:black;stroke-width:2px;"/>
            </g>
            <g transform="matrix(-0.996769,0.0803182,0.0803182,0.996769,753.255,-228.675)">
                <path d="M413.44,289.12L415.044,289.12" style="fill:none;stroke:rgb(255,0,0);stroke-width:1.5px;"/>
            </g>
            <g transform="matrix(-0.244563,-0.969633,-0.969633,0.244563,801.493,416.826)">
                <path d="M437.378,314.496L441.992,314.496" style="fill:none;stroke:rgb(0,0,255);stroke-width:1px;"/>
            </g>
            <g transform="matrix(1,0,0,1,-50.6686,-192.152)">
                <path d="M413.728,284.69L414.491,284.075M420.143,280.2L414.491,284.075M405.226,293.854L410.801,288.751" style="fill:none;stroke:black;stroke-width:2px;"/>
            </g>
            <g transform="matrix(-0.996769,0.0803259,0.0803259,0.996769,755.664,-228.971)">
                <path d="M415.04,289.218L415.866,289.218" style="fill:none;stroke:rgb(255,0,0);stroke-width:1.5px;"/>
            </g>
            <g transform="matrix(1,0,0,1,-50.6686,-122.722)">
                <path d="M410.801,219.321L417.416,214.164M410.32,253.818L410.314,252.784L410.603,250.097L411.234,247.24L412.245,244.217L413.682,241.035M415.334,238.151L413.682,241.035M427.754,234.265L430.371,231.33M412.489,263.092L411.879,261.862L411.139,259.835L410.613,257.65L410.328,255.301M410.32,253.818L410.328,255.301M422.536,242.651L423.864,239.948M414.035,265.627L413.913,265.473L412.811,263.739M412.489,263.092L412.811,263.739M421.578,245.24L422.536,242.651M415.911,267.853L415.17,267.072M414.035,265.627L415.17,267.072M420.961,247.703L421.578,245.24M468.193,289.667L469.757,290.46" style="fill:none;stroke:black;stroke-width:2px;"/>
            </g>
            <g transform="matrix(0.923261,-0.384174,-0.384174,-0.923261,65.8046,542.242)">
                <path d="M459.31,211.376L459.86,211.376" style="fill:none;stroke:black;stroke-width:1px;"/>
            </g>
            <g transform="matrix(1,0,0,1,-50.6686,-85.6829)">
                <path d="M423.02,236.146L421.469,235.255L419.725,234.107L418.087,232.86L416.565,231.505M415.911,230.814L416.565,231.505M420.865,217.238L420.631,215.186M460.989,249.365L457.831,248.116M454.871,247.038L457.831,248.116M464.286,250.783L460.989,249.365M467.742,252.399L464.286,250.783" style="fill:none;stroke:black;stroke-width:2px;"/>
            </g>
            <g transform="matrix(-0.90312,0.429387,0.429387,0.90312,742.181,-224.486)">
                <path d="M462.941,213.752L466.724,213.752" style="fill:none;stroke:black;stroke-width:1px;"/>
            </g>
            <g transform="matrix(-0.891914,-0.452205,-0.452205,0.891914,931.942,186.622)">
                <path d="M467.715,215.072L468.22,215.072" style="fill:none;stroke:black;stroke-width:2px;"/>
            </g>
            <g transform="matrix(1,0,0,1,-50.6686,-55.7513)">
                <path d="M473.787,219.241L470.093,221.274M478.536,216.379L477.624,216.963" style="fill:none;stroke:black;stroke-width:1px;"/>
            </g>
            <g transform="matrix(1,0,0,1,-50.6686,-127.056)">
                <path d="M477.447,286.855L473.697,284.075M464.899,284.285L461.533,285.67M454.484,288.278L454.796,288.383M454.871,288.411L454.796,288.383M461.533,285.67L458.256,286.882M468.355,282.71L464.899,284.285M448.955,289.64L446.025,290.312L443.174,290.88L440.402,291.355L437.704,291.745L435.079,292.057L432.524,292.298L430.036,292.473L427.613,292.586M427.06,292.599L427.613,292.586M454.22,288.189L454.484,288.278M455.069,287.938L451.969,288.853L448.955,289.64M449.042,286.498L446.304,285.673M451.869,287.394L449.042,286.498M454.22,288.189L451.869,287.394M441.081,284.161L438.587,283.437M436.169,282.715L433.828,281.98M431.563,281.22L429.377,280.421L427.27,279.573M443.652,284.9L441.081,284.161M438.587,283.437L436.169,282.715M446.304,285.673L443.652,284.9M433.828,281.98L431.563,281.22M458.256,286.882L455.069,287.938M425.247,278.665L423.312,277.687M423.02,277.519L423.312,277.687M427.27,279.573L425.247,278.665M450.889,273.181L448.403,273.432M453.439,272.796L450.889,273.181M427.962,269.116L426.479,268.013L425.129,266.782M445.984,273.551L443.637,273.544M425.129,266.782L423.926,265.42M441.365,273.413L439.173,273.16M423.926,265.42L422.881,263.924M437.064,272.786L435.043,272.293M422.881,263.924L422.01,262.292M433.116,271.681L431.289,270.948M422.01,262.292L421.332,260.522M429.569,270.094L427.962,269.116M421.332,260.522L420.865,258.611M443.637,273.544L441.365,273.413M431.289,270.948L429.569,270.094M448.403,273.432L445.984,273.551M439.173,273.16L437.064,272.786M435.043,272.293L433.116,271.681M420.655,254.367L420.961,252.037M455.349,272.412L453.439,272.796M420.631,256.559L420.655,254.367M448.369,268.036L446.607,266.931L444.96,265.827M443.704,264.908L444.96,265.827M455.729,272.335L456.595,272.838M455.742,272.333L455.349,272.412M455.729,272.335L454.354,271.537L452.24,270.318M450.246,269.159L448.369,268.036M452.24,270.318L450.246,269.159M458.975,274.249L456.595,272.838M455.742,272.333L455.817,272.318M470.273,281.62L467.127,279.448L464.217,277.52L461.509,275.799M470.377,281.694L468.355,282.71M473.697,284.075L470.273,281.62M470.377,281.694L470.553,281.605M461.509,275.799L458.975,274.249M455.817,272.318L456.047,272.271M438.616,259.86L437.773,258.509M443.704,264.908L443.432,264.709M440.752,262.38L439.612,261.148L438.616,259.86M443.432,264.709L442.028,263.563L440.752,262.38M436.655,255.787L437.095,257.091M457.74,271.846L456.047,272.271M437.773,258.509L437.095,257.091M478.903,287.964L477.447,286.855M423.864,244.282L425.594,241.48L427.754,238.599M430.371,235.664L433.466,232.707L437.055,229.767L441.14,226.889M436.59,248.925L437.159,247.09M436.277,254.039L436.163,252.404L436.262,250.698L436.59,248.925M436.655,255.787L436.592,255.601M451.536,221.194L450.751,221.533M445.714,224.125L450.751,221.533M437.982,245.201L439.072,243.27M436.592,255.601L436.277,254.039M451.536,221.194L456.208,219.177M464.786,216.359L462.018,217.125M456.208,219.177L462.018,217.125M442.092,239.338L444.034,237.371M439.072,243.27L440.44,241.31L442.092,239.338M437.159,247.09L437.982,245.201M444.034,237.371L446.265,235.434L448.782,233.552M461.417,270.782L458.709,271.602M469.74,267.371L466.943,268.671L464.165,269.807L461.417,270.782M457.74,271.846L458.709,271.602M448.782,233.552L451.571,231.751M468.655,225.095L472.383,224.46M483.036,224.423L486.163,225.08M485.891,256.071L483.398,258.351M490.361,251.132L488.227,253.658M496.396,237.886L495.961,240.491M493.344,229.013L494.845,230.912M495.097,243.16L493.844,245.849M488.962,226.072L491.372,227.39M495.855,233.051L496.368,235.391M483.398,258.351L480.785,260.484M488.227,253.658L485.891,256.071M493.844,245.849L492.25,248.519M495.961,240.491L495.097,243.16M472.541,265.902L469.74,267.371M496.368,235.391L496.396,237.886M475.33,264.264L472.541,265.902M494.845,230.912L495.855,233.051M478.086,262.457L475.33,264.264M480.785,260.484L478.086,262.457M476.072,224.123L479.647,224.107M492.25,248.519L490.361,251.132M479.217,276.679L475.522,278.924M470.553,281.605L471.898,280.929M475.522,278.924L471.898,280.929M494.299,265.078L490.546,268.383M497.961,261.51L494.299,265.078M504.72,253.668L501.462,257.697M510.862,243.422L510.108,245.146M501.462,257.697L497.961,261.51M482.969,274.18L479.217,276.679M507.638,249.465L504.72,253.668M510.108,245.146L507.638,249.465M486.755,271.417L482.969,274.18M490.546,268.383L486.755,271.417" style="fill:none;stroke:black;stroke-width:2px;"/>
            </g>
            <g transform="matrix(1,0,0,1,-50.6686,-114.531)">
                <path d="M515.673,240.871L511.753,246.069M507.543,250.98L503.171,255.563" style="fill:none;stroke:black;stroke-width:1px;"/>
            </g>
            <g transform="matrix(1,0,0,1,-50.6686,-165.202)">
                <path d="M491.372,265.537L493.344,267.159M510.862,281.568L512.017,278.925M513.252,274.592L512.017,278.925M513.436,272.901L513.252,274.592" style="fill:none;stroke:black;stroke-width:2px;"/>
            </g>
            <g transform="matrix(-0.457922,0.888992,0.888992,0.457922,473.817,-465.437)">
                <path d="M517.457,263.763L523.709,263.763" style="fill:none;stroke:black;stroke-width:1px;"/>
            </g>
            <g transform="matrix(1,0,0,1,-50.6686,-180.18)">
                <path d="M479.647,277.231L483.036,277.548M486.163,278.204L488.962,279.197M513.436,287.879L513.709,285.363M513.306,281.377L513.709,285.363M511.989,277.709L513.306,281.377M509.459,274.203L509.738,274.449L511.989,277.709" style="fill:none;stroke:black;stroke-width:2px;"/>
            </g>
            <g transform="matrix(1,0,0,1,-50.6686,-177.959)">
                <path d="M525.168,282.245L524.079,287.733M523.837,272.128L525.125,276.995" style="fill:none;stroke:black;stroke-width:1px;"/>
            </g>
            <g transform="matrix(1,0,0,1,-50.6686,-194.927)">
                <path d="M472.383,292.331L476.072,291.994M509.459,288.95L506.579,286.423M503.114,284.498L506.579,286.423" style="fill:none;stroke:black;stroke-width:2px;"/>
            </g>
            <g transform="matrix(0.723063,0.690782,0.690782,-0.723063,-109.895,-58.2288)">
                <path d="M516.63,293.931L521.991,293.931" style="fill:none;stroke:black;stroke-width:1px;"/>
            </g>
            <g transform="matrix(1,0,0,1,-50.6686,-190.771)">
                <path d="M464.956,289.719L468.655,288.81M503.114,280.343L502.576,280.044M499.039,278.829L502.576,280.044M457.886,292.236L461.348,290.872M451.571,295.466L454.615,293.779M461.348,290.872L464.956,289.719M499.039,278.829L497.831,278.413M492.476,277.396L497.831,278.413M489.756,277.207L492.476,277.396" style="fill:none;stroke:black;stroke-width:2px;"/>
            </g>
            <g transform="matrix(1,0,0,1,-50.6686,-151.772)">
                <path d="M506.154,232.772L512.291,234.928M498.739,297.033L494.32,300.902" style="fill:none;stroke:black;stroke-width:1px;"/>
            </g>
            <g transform="matrix(1,0,0,1,-50.6686,-192.674)">
                <path d="M454.615,295.681L457.886,294.139M464.786,281.977L468.091,281.062M489.756,279.11L486.664,278.895M480.557,279.082L486.664,278.895M474.315,279.822L480.557,279.082M468.091,281.062L474.315,279.822" style="fill:none;stroke:black;stroke-width:2px;"/>
            </g>
            <g transform="matrix(1,0,0,1,-50.6686,-142.08)">
                <path d="M491.546,221.274L499.162,221.761M475.428,222.626L483.555,221.583M478.536,302.708L481.605,300.742" style="fill:none;stroke:black;stroke-width:1px;"/>
            </g>
            <g transform="matrix(1,0,0,1,-50.6686,-202.497)">
                <path d="M504.441,266.885L516.345,267.828M536.178,273.988L543.232,279.133M550.393,292.78L550.533,300.785M547.995,285.473L550.393,292.78M543.232,279.133L547.995,285.473M552.669,291.097L549.923,283.691M544.988,277.664L549.923,283.691M527.084,270.194L536.178,273.988M544.988,277.664L544.668,277.273M537.591,272.509L544.668,277.273M516.345,267.828L527.084,270.194M537.591,272.509L537.031,272.132M527.305,268.422L537.031,272.132M517.28,266.473L527.305,268.422M547.448,312.218L548.678,309.196M550.533,300.785L548.678,309.196M550.6,309.864L551.31,308.065M553.063,299.382L551.31,308.065M552.69,291.155L553.063,299.382M552.669,291.097L552.69,291.155M563.73,276.206L565.954,286.647M557.832,267L563.73,276.206M441.14,302.33L445.714,299.566M424.585,306.85L428.81,303.209M415.589,317.482L418.013,314.027L420.997,310.471L424.585,306.85M428.81,303.209L433.695,299.602M415.334,317.926L415.589,317.482M439.247,296.095L445.451,292.764M433.695,299.602L439.247,296.095" style="fill:none;stroke:black;stroke-width:2px;"/>
            </g>
            <g transform="matrix(0.99677,-0.080308,-0.080308,-0.99677,-25.9527,415.549)">
                <path d="M415.817,290.443L445.499,290.443" style="fill:none;stroke:rgb(255,0,0);stroke-width:1.5px;"/>
            </g>
            <g transform="matrix(0.244562,0.969634,0.969634,-0.244562,-9.096,-275.689)">
                <path d="M440.475,302.115L445.141,302.115" style="fill:none;stroke:rgb(0,0,255);stroke-width:1px;"/>
            </g>
            <g transform="matrix(1,0,0,1,-50.6686,-201.367)">
                <path d="M445.451,291.635L445.451,291.635" style="fill:none;stroke:black;stroke-width:10px;stroke-linecap:round;"/>
            </g>
            <g transform="matrix(1,0,0,1,-50.6686,-209.394)">
                <path d="M459.614,293.886L467.385,291.635M445.451,299.662L452.265,296.595" style="fill:none;stroke:black;stroke-width:1px;"/>
            </g>
            <g transform="matrix(1,0,0,1,-50.6686,-237.543)">
                <path d="M491.887,302.335L504.441,301.931M517.28,301.519L515.926,301.256M505.291,300.631L515.926,301.256M479.173,303.95L491.887,302.335M505.291,300.631L503.418,300.521M492.756,301.051L503.418,300.521M466.727,306.608L479.173,303.95M492.756,301.051L490.326,301.171M480.16,302.625L490.326,301.171M443.92,314.283L454.892,310.116M433.972,318.924L443.92,314.283" style="fill:none;stroke:black;stroke-width:2px;"/>
            </g>
            <g transform="matrix(-0.244566,-0.969633,-0.969633,0.244566,795.08,431.389)">
                <path d="M441.804,304.715L442.5,304.715" style="fill:none;stroke:rgb(0,0,255);stroke-width:1px;"/>
            </g>
            <g transform="matrix(1,0,0,1,-50.6686,-225.378)">
                <path d="M454.892,297.951L466.727,294.442M480.16,290.46L477.161,290.889M464.359,293.818L477.161,290.889M452.265,297.592L464.359,293.818M445.711,300.188L452.265,297.592M417.416,316.82L425.13,311.708L433.972,306.759" style="fill:none;stroke:black;stroke-width:2px;"/>
            </g>
            <g transform="matrix(0.244565,0.969633,0.969633,-0.244565,-12.8194,-277.326)">
                <path d="M441.719,305.324L442.278,305.324" style="fill:none;stroke:rgb(0,0,255);stroke-width:1px;"/>
            </g>
            <g transform="matrix(-0.929721,0.368264,0.368264,0.929721,692.244,-372.24)">
                <path d="M440.946,306.183L445.885,306.183" style="fill:none;stroke:black;stroke-width:2px;"/>
            </g>
            <g transform="matrix(-0.24482,-0.969568,-0.969568,0.24482,795.771,429.926)">
                <path d="M441.889,305.627L441.955,305.627" style="fill:none;stroke:rgb(0,0,255);stroke-width:1px;"/>
            </g>
            <g transform="matrix(0.900004,-0.435881,-0.435881,-0.900004,124.942,541.706)">
                <path d="M430.515,302.841L441.678,302.841" style="fill:none;stroke:black;stroke-width:2px;"/>
            </g>
            <g transform="matrix(-0.24455,-0.969637,-0.969637,0.24455,795.989,429.319)">
                <path d="M441.335,306.11L442.266,306.11" style="fill:none;stroke:rgb(0,0,255);stroke-width:1px;"/>
            </g>
            <g transform="matrix(0.865148,-0.501517,-0.501517,-0.865148,156.233,555.703)">
                <path d="M421.503,297.835L431.765,297.835" style="fill:none;stroke:black;stroke-width:2px;"/>
            </g>
            <g transform="matrix(-0.244564,-0.969633,-0.969633,0.244564,796.867,427.331)">
                <path d="M440.557,307.441L442.372,307.441" style="fill:none;stroke:rgb(0,0,255);stroke-width:1px;"/>
            </g>
            <g transform="matrix(0.824759,-0.565484,-0.565484,-0.824759,189.705,568.448)">
                <path d="M419.924,294.558L422.413,294.558" style="fill:none;stroke:black;stroke-width:2px;"/>
            </g>
            <g transform="matrix(-0.244567,-0.969632,-0.969632,0.244567,798.737,423.087)">
                <path d="M438.715,310.29L442.776,310.29" style="fill:none;stroke:rgb(0,0,255);stroke-width:1px;"/>
            </g>
            <g transform="matrix(-0.801243,0.598339,0.598339,0.801243,691.837,-320.092)">
                <path d="M485.198,227.674L490.497,227.674" style="fill:none;stroke:black;stroke-width:1px;"/>
            </g>
            <g transform="matrix(-0.994924,0.100625,0.100625,0.994924,849.848,162.17)">
                <path d="M412.003,87.155L499.597,87.155" style="fill:none;stroke:black;stroke-width:2px;"/>
            </g>
            <g transform="matrix(1,0,0,1,-50.6686,133.116)">
                <path d="M370.012,109.108L412.226,166.039M458.278,118.54L467.531,122.572L477.602,126.31M411.522,82.747L411.878,83.298L414.337,86.577L417.326,90.061L420.907,93.746M477.602,126.31L488.367,129.606M420.907,93.746L425.144,97.617M488.367,129.606L499.627,132.301M425.144,97.617L430.104,101.653M507.309,133.59L499.627,132.301M430.104,101.653L435.85,105.819L442.437,110.069L449.908,114.337L458.278,118.54" style="fill:none;stroke:black;stroke-width:2px;"/>
            </g>
            <g transform="matrix(1,0,0,1,-50.6686,-18.1904)">
                <path d="M432.976,242.133L435.618,244.787M443.417,251.295L443.668,251.493M474.769,268.226L482.759,271.041L491.154,273.464M448.609,254.945L454.193,258.407M467.3,265.122L474.769,268.226M443.668,251.493L448.609,254.945M454.193,258.407L460.428,261.822L467.3,265.122M499.795,275.386L508.475,276.698M510.025,276.808L508.475,276.698M491.154,273.464L499.795,275.386M474.966,263.084L481.48,265.518M443.417,251.295L439.349,248.096M435.618,244.787L439.349,248.096M448.445,247.958L449.386,248.728L453.482,251.7M495.364,269.386L502.471,270.66L509.463,271.389M453.482,251.7L458.096,254.671M488.318,267.645L495.364,269.386M510.726,271.412L509.463,271.389M458.096,254.671L463.228,257.595M468.863,260.42L474.966,263.084M481.48,265.518L488.318,267.645M463.228,257.595L468.863,260.42M477.204,258.788L482.447,260.762M411.522,234.053L409.889,231.531M409.542,230.895L409.889,231.531M432.976,242.133L432.438,241.593M423.372,227.761L424.406,230.225M422.232,223.278L422.657,225.446L423.372,227.761M424.406,230.225L425.792,232.841M422.09,221.524L422.232,223.278M427.566,235.611L429.768,238.53L432.438,241.593M425.792,232.841L427.566,235.611M432.721,227.866L433.499,230.071M510.726,271.412L511.829,271.431M504.678,265.564L509.974,265.722M513.837,265.451L509.974,265.722M446.996,246.772L448.445,247.958M467.65,254.3L472.255,256.617L477.204,258.788M482.447,260.762L487.913,262.484L493.515,263.895L499.145,264.939M460.749,250.161L463.421,251.885L467.65,254.3M474.524,254.358L478.794,256.218M499.145,264.939L504.678,265.564M483.291,257.899L487.955,259.358M471.352,252.774L474.524,254.358M508.618,261.957L506.608,262.091M478.794,256.218L483.291,257.899M492.711,260.549L497.474,261.428L502.142,261.954L506.608,262.091M487.955,259.358L492.711,260.549M488.047,256.888L492.157,257.9M434.592,232.403L436.029,234.86L437.838,237.436L440.049,240.125L442.692,242.915L445.796,245.79M446.996,246.772L445.796,245.79M434.332,231.847L434.592,232.403M450.508,241.989L453.138,244.437L456.162,246.92L459.59,249.413M460.749,250.161L459.59,249.413M447.076,238.137L448.259,239.595L450.508,241.989M456.974,243.023L457.744,243.734M471.352,252.774L470.526,252.361M460.434,245.925L463.464,248.112L466.832,250.268L470.526,252.361M457.744,243.734L460.434,245.925M472.809,250.839L476.334,252.578M437.536,212.302L436.27,213.374M437.975,211.996L437.536,212.302M432.272,220.284L432.029,221.998L432.009,223.831M435.145,214.546L434.171,215.82M432.721,218.685L432.272,220.284M436.27,213.374L435.145,214.546M434.171,215.82L433.358,217.198L432.721,218.685M432.232,225.786L432.721,227.866M434.332,231.847L433.499,230.071M432.009,223.831L432.232,225.786M441.562,225.305L441.69,227.041M443.156,219.42L442.472,220.733M443.171,219.399L443.156,219.42M444.831,235.031L446.373,237.272M447.076,238.137L446.373,237.272M441.66,223.675L441.562,225.305M441.69,227.041L442.061,228.884L442.695,230.832L443.612,232.883L444.831,235.031M441.969,222.151L441.66,223.675M442.472,220.733L441.969,222.151M447.431,225.467L447.351,226.501M451.672,237.346L453.373,239.428M447.776,229.762L448.345,231.532M447.351,226.501L447.45,228.084L447.776,229.762M456.974,243.023L455.393,241.562M453.373,239.428L455.393,241.562M449.174,233.39L450.277,235.33L451.672,237.346M448.345,231.532L449.174,233.39M454.578,235.648L455.86,237.474M440.455,210.448L438.933,211.327M437.975,211.996L438.933,211.327M442.093,209.665L440.455,210.448M451.864,207.226L449.713,207.509M443.843,208.978L442.093,209.665M445.699,208.389L443.843,208.978M449.713,207.509L447.657,207.898M456.442,206.996L454.107,207.053M448.901,214.401L447.475,215.199L446.178,216.1M450.45,213.707L448.901,214.401M446.178,216.1L445.02,217.104L444.01,218.21M443.171,219.399L444.01,218.21M453.89,212.638L452.115,213.119M455.252,212.37L453.89,212.638M452.115,213.119L450.45,213.707M454.178,216.923L453.173,217.412L451.908,218.194L450.777,219.078L449.788,220.065L448.952,221.153M447.431,225.467L447.466,225.016M448.279,222.341L447.779,223.629L447.466,225.016M448.952,221.153L448.279,222.341M454.107,207.053L451.864,207.226M452.282,224.962L451.983,226.23M509.095,261.925L508.618,261.957M457.417,239.353L459.257,241.271L461.388,243.215M455.86,237.474L457.417,239.353M463.813,245.166L466.531,247.104L469.534,249.003L472.809,250.839M476.334,252.578L480.078,254.19L484,255.639L488.047,256.888M461.388,243.215L463.813,245.166M472.917,247.543L475.716,249.101M496.256,258.642L500.263,259.079M503.417,259.168L500.263,259.079M492.157,257.9L496.256,258.642M488.512,254.098L491.906,254.903L495.27,255.476M495.951,255.542L495.27,255.476M454.422,235.377L454.578,235.648M467.984,244.229L470.334,245.911M464.019,240.788L465.877,242.515M475.716,249.101L478.708,250.563M481.865,251.901L485.147,253.089M470.334,245.911L472.917,247.543M478.708,250.563L481.865,251.901M462.744,239.418L464.019,240.788M465.877,242.515L467.984,244.229M471.61,244.435L473.824,245.9M485.147,253.089L488.512,254.098M476.225,247.3L478.796,248.616M469.598,242.925L471.61,244.435M473.824,245.9L476.225,247.3M469.116,242.512L469.598,242.925M481.509,249.826L484.335,250.909L487.237,251.841M489.571,252.445L487.237,251.841M478.796,248.616L481.509,249.826M477.497,246.582L479.816,247.708M454.178,216.923L454.565,216.735M458.768,218.787L457.435,219.367L456.224,220.052L455.143,220.838L454.198,221.723L453.4,222.707M454.422,235.377L453.559,233.884M452.758,223.787L452.282,224.962M451.983,226.23L451.872,227.59L451.962,229.039M453.4,222.707L452.758,223.787M452.264,230.574L452.792,232.19L453.559,233.884M451.962,229.039L452.264,230.574M458.12,226.257L457.885,227.728L457.857,229.236M459.078,233.996L459.946,235.657M457.857,229.236L458.041,230.783M459.946,235.657L461.056,237.348M458.041,230.783L458.446,232.37M462.076,238.637L461.056,237.348M458.446,232.37L459.078,233.996M463.428,217.69L461.771,217.945L460.215,218.312M463.53,217.682L463.428,217.69M462.185,219.252L461.001,220.635M459.999,222.016L459.183,223.408M458.555,224.819L458.12,226.257M459.183,223.408L458.555,224.819M461.001,220.635L459.999,222.016M463.758,217.663L463.551,217.854L462.185,219.252M463.53,217.682L464.105,217.635M463.758,217.663L464.136,217.314M463.613,222.725L462.936,223.768M462.479,234.465L462.113,233.67M462.24,225.124L461.73,226.491L461.409,227.876L461.282,229.284M462.936,223.768L462.24,225.124M461.354,230.718L461.629,232.181L462.113,233.67M461.282,229.284L461.354,230.718M460.215,218.312L458.768,218.787M456.076,216.164L454.565,216.735M457.7,215.702L456.076,216.164M457.927,215.656L457.7,215.702M462.964,229.442L462.869,230.423M498.188,255.761L495.951,255.542M498.477,253.632L495.95,253.518M489.571,252.445L490.173,252.6L493.094,253.166L495.95,253.518M494.974,251.794L497.354,251.866M475.862,245.682L477.497,246.582M484.765,249.655L487.335,250.437L489.921,251.065L492.481,251.523M482.248,248.739L484.765,249.655M479.816,247.708L482.248,248.739M498.729,251.782L497.354,251.866M492.481,251.523L494.974,251.794M490.368,246.918L491.956,247.053M462.076,238.637L462.412,239.062M462.744,239.418L462.412,239.062M466.326,239.935L466.22,239.83M467.38,224.718L466.398,225.143M462.479,234.465L462.811,235.185L463.726,236.721L464.861,238.272L466.22,239.83M463.547,233.742L464.116,234.956M466.398,225.143L465.52,225.656M463.154,232.578L463.547,233.742M464.756,226.253L464.111,226.934M465.52,225.656L464.756,226.253M463.592,227.694L463.207,228.531M462.93,231.47L463.154,232.578M464.111,226.934L463.592,227.694M463.207,228.531L462.964,229.442M462.869,230.423L462.93,231.47M464.866,236.214L465.801,237.506M466.834,238.718L465.801,237.506M464.116,234.956L464.866,236.214M468.461,224.383L467.38,224.718M473.004,223.96L472.226,223.936L470.891,223.99M469.634,224.14L468.461,224.383M470.891,223.99L469.634,224.14M463.865,222.35L463.815,222.414M463.613,222.725L463.815,222.414M470.198,230.671L469.944,231.278M469.116,242.512L467.8,241.385M466.326,239.935L467.8,241.385M466.834,238.718L466.923,238.823L468.235,240.156L469.735,241.492L471.42,242.817M472.494,243.568L471.42,242.817M469.855,233.41L470.063,234.21M472.494,243.568L473.282,244.119M474.229,244.707L473.282,244.119M470.063,234.21L470.396,235.048M469.769,232.651L469.855,233.41M475.862,245.682L475.312,245.379M474.229,244.707L475.312,245.379M472.158,237.721L473.002,238.642L473.971,239.565M470.855,235.916L471.442,236.81L472.158,237.721M469.944,231.278L469.8,231.939M470.396,235.048L470.855,235.916M473.971,239.565L475.062,240.481M475.772,241.01L475.062,240.481M469.8,231.939L469.769,232.651M474.325,234.279L474.444,234.831M488.723,246.661L490.368,246.918M482.072,244.595L483.701,245.248M475.772,241.01L476.268,241.38M478.998,243.086L480.498,243.871L482.072,244.595M476.268,241.38L477.584,242.252L478.998,243.086M485.366,245.816L487.048,246.291L488.723,246.661M483.701,245.248L485.366,245.816M480.365,240.967L481.362,241.51M491.956,247.053L493.463,247.061M494.352,246.983L493.463,247.061M490.946,243.794L491.824,243.665M491.864,243.655L491.824,243.665M485.704,243.205L486.816,243.477M484.589,242.866L485.704,243.205M474.444,234.831L474.651,235.41M475.806,237.26L476.368,237.898M486.816,243.477L487.911,243.676M477.014,238.536L477.742,239.169M487.911,243.676L488.975,243.797M478.547,239.79L479.424,240.391M488.975,243.797L489.991,243.838M481.362,241.51L482.405,242.012M489.991,243.838L490.946,243.794M483.485,242.466L484.589,242.866M474.947,236.011L475.332,236.629M476.368,237.898L477.014,238.536M482.405,242.012L483.485,242.466M475.332,236.629L475.806,237.26M477.742,239.169L478.547,239.79M479.424,240.391L480.365,240.967M474.307,233.633L474.293,233.758L474.325,234.279M474.651,235.41L474.947,236.011M485.442,239.989L486.074,240.35M489.688,241.107L490.163,241.003M488.59,241.121L489.161,241.146L489.688,241.107M486.716,240.643L487.356,240.87L487.985,241.029L488.59,241.121M486.074,240.35L486.716,240.643M476.261,231.244L475.77,231.464L475.342,231.734L474.982,232.052L474.693,232.416L474.48,232.824L474.346,233.272M474.307,233.633L474.346,233.272M484.256,239.067L484.833,239.562L485.442,239.989M482.843,237.167L483.25,237.871M483.725,238.504L484.256,239.067M483.25,237.871L483.725,238.504M481.04,231.166L480.252,231.019M481.096,231.18L481.04,231.166M482.283,235.529L482.517,236.388L482.843,237.167M481.707,231.33L481.096,231.18M482.153,234.585L482.283,235.529M482.262,232.403L482.141,233.546M482.445,231.546L482.262,232.403M482.141,233.546L482.153,234.585M482.664,231.612L481.846,231.365M482.445,231.546L482.447,231.535M483.487,231.907L482.664,231.612M482.447,231.535L482.452,231.514M484.308,232.247L483.487,231.907M481.707,231.33L481.846,231.365M482.452,231.514L482.479,231.387M488.117,234.492L487.42,233.984M476.81,231.074L476.261,231.244M477.413,230.957L476.81,231.074M478.064,230.893L477.413,230.957M479.489,230.924L478.758,230.882M480.252,231.019L479.489,230.924M488.766,235.019L488.117,234.492M478.758,230.882L478.064,230.893M472.92,228.562L472.2,228.853L471.562,229.211L471.012,229.635L470.556,230.123L470.198,230.671M474.583,228.193L473.717,228.342M475.513,228.116L474.583,228.193M489.895,236.109L489.361,235.56M485.913,233.047L485.119,232.628M490.755,237.203L490.362,236.658M487.42,233.984L486.683,233.501M491.453,238.74L491.304,238.25M486.683,233.501L485.913,233.047M491.193,240.333L491.385,240.001M489.361,235.56L488.766,235.019M485.119,232.628L484.308,232.247M480.876,228.829L479.733,228.541M482.038,229.187L480.876,228.829M483.028,229.547L482.038,229.187M482.965,229.747L482.531,231.142M482.479,231.387L482.531,231.142M483.043,229.553L482.965,229.747M483.028,229.547L483.209,229.614M483.043,229.553L483.046,229.545M485.088,230.442L484.382,230.106L483.209,229.614M483.046,229.545L483.119,229.363M476.5,228.112L475.513,228.116M477.537,228.182L476.5,228.112M479.733,228.541L478.617,228.325L477.537,228.182M490.362,236.658L489.895,236.109M485.088,230.442L485.546,230.659M487.546,231.781L486.69,231.271M491.07,237.736L490.755,237.203M487.546,231.781L487.803,231.934M490.922,240.613L491.193,240.333M491.516,239.199L491.453,238.74M490.577,240.838L490.922,240.613M491.385,240.001L491.493,239.621L491.516,239.199M491.304,238.25L491.07,237.736M489.894,233.394L488.875,232.644M490.849,234.176L489.894,233.394M491.727,234.982L490.849,234.176M492.518,235.804L491.727,234.982M493.211,236.631L492.518,235.804M493.796,237.455L493.211,236.631M494.265,238.266L493.796,237.455M490.163,241.003L490.577,240.838M491.864,243.655L492.614,243.451M493.876,242.771L494.329,242.311M494.902,240.519L494.823,239.807M494.329,242.311L494.654,241.778M493.301,243.152L493.876,242.771M492.614,243.451L493.301,243.152M494.654,241.778L494.846,241.178L494.902,240.519M494.352,246.983L494.864,246.938L496.134,246.68M496.715,246.477L496.134,246.68M494.823,239.807L494.609,239.053M497.67,246.059L497.252,246.289M496.715,246.477L497.252,246.289M494.609,239.053L494.265,238.266M499.277,239.533L499.615,240.335M499.908,241.457L499.615,240.335M499.99,242.51L499.908,241.457M499.512,244.354L499.858,243.481M498.955,245.12L499.512,244.354M498.198,245.767L498.955,245.12M497.67,246.059L498.198,245.767M488.875,232.644L487.803,231.934M497.984,237.305L498.434,237.948M499.12,239.16L498.434,237.948M499.277,239.533L499.12,239.16M486.69,231.271L485.546,230.659M482.245,225.981L483.1,226.308M483.119,229.363L483.585,228.2M484.252,226.811L483.585,228.2M486.42,227.851L484.763,227.035L483.1,226.308M484.252,226.811L484.31,226.69M491.211,230.782L489.66,229.732M492.694,231.893L491.211,230.782M489.66,229.732L488.058,228.753L486.42,227.851M484.863,225.658L484.413,226.475M484.31,226.69L484.413,226.475M497.984,237.305L497.571,236.716M494.09,233.054L492.694,231.893M495.381,234.254L494.09,233.054M496.548,235.48L495.381,234.254M497.571,236.716L496.548,235.48M493.032,226.946L493.533,227.279M495.746,228.899L493.533,227.279M497.865,230.61L495.746,228.899M501.185,233.722L499.859,232.394M473.717,228.342L472.92,228.562M473.004,223.96L473.631,223.979M475.1,224.12L473.631,223.979M478.196,224.7L476.624,224.36M479.805,225.138L478.196,224.7M481.444,225.675L479.805,225.138M482.245,225.981L481.444,225.675M499.858,243.481L499.99,242.51M509.095,261.925L510.758,261.813L514.48,261.103M503.417,259.168L504.091,259.186L507.648,258.942L510.846,258.332M515.791,256.05L513.603,257.355M510.846,258.332L513.603,257.355M498.541,255.795L501.652,255.841M517.327,254.528L515.846,256.017M515.791,256.05L515.846,256.017M501.652,255.841L504.534,255.6M517.654,254.083L517.519,254.336M517.327,254.528L517.519,254.336M504.534,255.6L507.121,255.063M498.188,255.761L498.541,255.795M499.575,251.729L501.592,251.378M498.729,251.782L499.575,251.729M507.311,243.38L506.767,241.644M506.036,249.044L506.88,247.868L507.376,246.517M507.519,245.013L507.311,243.38M503.365,250.81L504.856,250.029L506.036,249.044M507.376,246.517L507.519,245.013M501.592,251.378L503.365,250.81M498.477,253.632L498.687,253.642L501.248,253.523L503.579,253.155M508.718,250.56L509.688,249.229M507.356,251.668L508.718,250.56M505.631,252.536L507.356,251.668M503.579,253.155L505.631,252.536M501.185,233.722L501.694,234.231M503.336,236.1L501.694,234.231M504.751,237.977L503.336,236.1M505.904,239.834L504.751,237.977M509.988,248.41L509.688,249.229M509.352,254.231L511.175,253.11M506.767,241.644L505.904,239.834M508.491,240.117L509.489,242.143M510.139,244.122L509.489,242.143M510.399,245.983L510.139,244.122M510.25,247.695L510.399,245.983M509.988,248.41L510.25,247.695M513.843,248.189L513.755,246.122M513.332,244.448L513.755,246.122M513.441,250.064L513.843,248.189M512.547,251.713L513.441,250.064M511.175,253.11L512.547,251.713M518.986,249.508L519.022,250.008M507.121,255.063L509.352,254.231M515.409,260.768L514.48,261.103M476.624,224.36L475.1,224.12M467.599,217.554L467.023,217.525M463.865,222.35L464.876,221.051M467.545,218.242L466.119,219.666L464.876,221.051M468.259,217.587L467.545,218.242M470.956,217.844L468.95,217.622M467.599,217.554L468.95,217.622M468.259,217.587L468.345,217.508M486.425,222.998L484.254,221.931L481.93,220.913M486.494,222.886L485.477,224.545M484.863,225.658L485.477,224.545M486.425,222.998L486.594,223.081M488.933,224.36L486.594,223.081M493.032,226.946L491.254,225.762M475.178,218.672L473.034,218.193M477.382,219.284L475.178,218.672M479.635,220.031L477.382,219.284M481.93,220.913L479.635,220.031M491.254,225.762L488.933,224.36M487.289,221.59L486.618,221.222M486.494,222.886L486.807,222.377M487.32,221.607L487.289,221.59M487.34,221.579L486.807,222.377M487.32,221.607L488.569,222.293M464.105,217.635L465.18,217.549M467.023,217.525L465.18,217.549M464.136,217.314L464.7,216.793M468.345,217.508L468.44,217.421M484.324,220.088L486.618,221.222M487.34,221.579L487.501,221.337M499.859,232.394L497.865,230.61M487.501,221.337L487.931,220.694M499.224,229.635L496.827,227.714M491.79,224.205L489.209,222.643M494.339,225.899L491.79,224.205M496.827,227.714L494.339,225.899M488.569,222.293L489.209,222.643M503.593,233.721L501.492,231.645M505.485,235.839L503.593,233.721M501.492,231.645L499.224,229.635M496.624,225.189L493.777,223.21L490.898,221.379M507.126,237.969L505.485,235.839M508.473,240.081L507.126,237.969M508.491,240.117L508.473,240.081M509.006,236.711L506.932,234.272M512.187,241.565L510.775,239.155M513.332,244.448L513.193,243.901M504.606,231.871L502.081,229.54M506.932,234.272L504.606,231.871M513.193,243.901L512.187,241.565M510.775,239.155L509.006,236.711M518.081,244.861L516.765,242.034M490.442,221.115L490.898,221.379M502.081,229.54L499.405,227.305L496.624,225.189M497.388,222.281L497.794,222.563M501.074,225.036L497.794,222.563M504.267,227.663L501.074,225.036M507.318,230.42L504.267,227.663M510.165,233.275L507.318,230.42M512.737,236.192L510.165,233.275M516.765,242.034L514.961,239.127M518.849,247.555L518.081,244.861M518.986,249.508L518.849,247.555M473.034,218.193L470.956,217.844M463.19,214.999L461.262,215.116M465.209,215.004L463.19,214.999M466.574,215.089L465.209,215.004M457.927,215.656L459.43,215.352M461.262,215.116L459.43,215.352M462,211.861L459.829,211.875M469.604,212.734L469.039,212.614M464.26,211.976L462,211.861M466.608,212.225L464.26,211.976M469.039,212.614L466.608,212.225M470.867,211.753L468.751,213.397M471.74,211.089L470.867,211.753M464.7,216.793L465.099,216.425M466.657,215.094L466.574,215.089M466.83,214.946L465.099,216.425M468.751,213.397L466.83,214.946M466.657,215.094L467.315,215.135M469.503,215.398L467.315,215.135M470.461,215.566L469.503,215.398M468.44,217.421L469.157,216.763M470.53,215.578L470.461,215.566M470.961,215.206L469.157,216.763M471.009,215.166L470.961,215.206M476.51,217.016L474.106,216.334M470.53,215.578L471.769,215.796M474.106,216.334L471.769,215.796M481.486,218.82L478.973,217.844M484.039,219.947L481.486,218.82M478.973,217.844L476.51,217.016M471.009,215.166L472.264,214.126M484.324,220.088L484.039,219.947M472.264,214.126L472.965,213.546M472.985,213.53L472.965,213.546M474.139,213.837L471.55,213.149M472.985,213.53L473.038,213.487M469.604,212.734L471.55,213.149M476.799,214.681L474.139,213.837M473.038,213.487L473.203,213.353M479.526,215.688L476.799,214.681M473.203,213.353L473.469,213.139M485.145,218.201L482.311,216.861L479.526,215.688M473.469,213.139L474.274,212.488M488.013,219.708L485.145,218.201M474.274,212.488L474.808,212.057M488.428,219.948L488.013,219.708M476.294,210.864L475.18,211.756M474.808,212.057L475.18,211.756M455.252,212.37L455.77,212.268M459.829,211.875L457.751,212.012M471.74,211.089L473.135,210.027M457.751,212.012L455.77,212.268M473.369,209.85L473.187,209.987M473.135,210.027L473.187,209.987M475.262,210.473L472.311,209.502M473.369,209.85L473.42,209.811M478.297,211.624L475.262,210.473M476.294,210.864L476.376,210.798M472.311,209.502L469.447,208.704M473.42,209.811L473.623,209.658M481.412,212.963L478.297,211.624M476.376,210.798L476.575,210.639M469.447,208.704L466.67,208.07M473.623,209.658L473.976,209.391M484.601,214.494L481.412,212.963M473.976,209.391L473.996,209.375M476.575,210.639L476.882,210.393M487.852,216.222L484.601,214.494M476.882,210.393L477.293,210.064M461.379,207.257L458.866,207.062M463.98,207.59L461.379,207.257M466.67,208.07L463.98,207.59M473.996,209.375L474.917,208.678M490.139,217.556L488.44,219.932M487.931,220.694L488.44,219.932M488.428,219.948L490.442,221.115M494.474,220.262L491.15,218.145M497.388,222.281L494.474,220.262M514.961,239.127L512.737,236.192M518.267,238.615L515.556,235.234M512.478,231.894L509.123,228.646M515.556,235.234L512.478,231.894M520.515,241.981L518.267,238.615M521.242,243.395L520.515,241.981M509.062,228.592L509.123,228.646M522.817,238.703L521.963,237.535M519.518,234.69L521.963,237.535M491.15,218.145L487.852,216.222M476.339,207.603L476.15,207.53M474.917,208.678L475.725,208.067M476.421,207.537L475.725,208.067M478.969,208.722L476.837,207.795M476.339,207.603L476.837,207.795M477.293,210.064L477.618,209.803M480.311,207.643L480.298,207.653L477.618,209.803M487.179,212.812L483.638,210.923M490.801,214.925L487.179,212.812M491.641,215.458L490.801,214.925M490.139,217.556L490.419,217.165M491.688,215.488L490.419,217.165M491.641,215.458L494.485,217.261M491.688,215.488L491.762,215.391M498.203,219.816L494.485,217.261M491.762,215.391L491.938,215.158M478.969,208.722L480.188,209.253M483.638,210.923L480.188,209.253M505.578,225.529L501.917,222.577L498.203,219.816M491.938,215.158L492.674,214.184M509.062,228.592L505.578,225.529M492.674,214.184L492.795,214.025M493.646,212.95L492.795,214.025M493.995,213.172L489.92,210.59M493.646,212.95L493.654,212.939M489.92,210.59L485.959,208.268M502.387,219.108L498.162,216.013M506.618,222.442L502.387,219.108M510.786,225.991L506.618,222.442M514.805,229.721L510.786,225.991M518.57,233.588L514.805,229.721M485.036,207.771L485.959,208.268M519.518,234.69L518.57,233.588M498.162,216.013L493.995,213.172M496.765,209.011L495.355,208.05M493.654,212.939L495.623,210.453M496.792,209.03L496.765,209.011M497.548,208.11L495.623,210.453M501.737,212.604L496.831,209.056M496.792,209.03L496.831,209.056M506.783,216.474L501.737,212.604M511.902,220.647L506.783,216.474M516.996,225.096L511.902,220.647M524.807,232.776L521.937,229.773M458.866,207.062L456.442,206.996M467.382,204.601L464.426,203.891M470.435,205.48L467.382,204.601M473.586,206.541L470.435,205.48M476.15,207.53L473.586,206.541M477.821,206.472L476.421,207.537M481,207.084L480.311,207.643M463.981,203.806L464.426,203.891M472.205,201.744L474.848,202.793M478.422,204.38L474.848,202.793M477.821,206.472L478.495,205.959M479.714,205.016L478.495,205.959M482.101,206.19L481,207.084M485.036,207.771L482.125,206.202L478.422,204.38M484.626,201.164L481.515,203.624M481.56,199.399L483.266,200.349M484.667,201.188L483.266,200.349M488.399,198.098L484.809,201.019M484.626,201.164L484.809,201.019M488.44,198.064L488.399,198.098M479.714,205.016L481.515,203.624M486.47,202.595L483.241,205.265M486.695,202.404L486.47,202.595M482.101,206.19L483.241,205.265M492.105,205.834L487.582,202.935M495.355,208.05L492.105,205.834M484.667,201.188L487.582,202.935M486.695,202.404L490.013,199.594M490.036,199.575L490.013,199.594M497.548,208.11L498.206,207.309M447.657,207.898L445.699,208.389M461.562,203.34L458.789,202.935M447.338,202.67L448.561,202.575M450.99,202.494L448.561,202.575M453.504,202.521L450.99,202.494M456.103,202.665L453.504,202.521M458.789,202.935L456.103,202.665M463.981,203.806L461.562,203.34M472.205,201.744L471.398,201.424M458.719,197.828L455.795,197.321M461.735,198.477L458.719,197.828M464.85,199.282L461.735,198.477M468.068,200.259L464.85,199.282M471.398,201.424L468.068,200.259M454.697,197.174L455.795,197.321M475.232,196.046L471.486,194.289L467.901,192.764M481.56,199.399L479.153,198.058M463.019,190.96L464.459,191.45M467.901,192.764L464.459,191.45M479.153,198.058L475.232,196.046M479.311,191.248L475.227,188.855M483.662,193.961L479.311,191.248M485.119,194.921L483.662,193.961M475.227,188.855L471.38,186.751M469.757,185.928L471.38,186.751M521.937,229.773L516.996,225.096M489.06,197.542L488.307,197.021M485.119,194.921L488.307,197.021M495.461,192.072L492.312,194.811M495.518,192.117L491.227,188.696M495.461,192.072L495.483,192.053M488.44,198.064L492.312,194.811M490.905,198.819L490.036,199.575M490.955,198.853L489.06,197.542M490.905,198.819L493.9,196.212M497.077,193.362L493.9,196.212M490.955,198.853L493.265,200.452M498.545,204.272L493.265,200.452M499.765,205.193L498.545,204.272M495.518,192.117L496.856,193.184M503.07,198.184L496.856,193.184M497.077,193.362L497.108,193.335M504.736,199.539L503.07,198.184M478.903,179.098L481.578,181.136M491.227,188.696L486.152,184.692M495.483,192.053L495.548,191.996M497.108,193.335L497.183,193.267M486.152,184.692L481.578,181.136M506.198,182.237L501.198,186.932M540.526,141.842L535.062,149.938M501.198,186.932L496.572,191.106M495.548,191.996L496.572,191.106M511.561,176.977L506.198,182.237M517.247,171.119L511.561,176.977M529.178,157.57L523.167,164.646M535.062,149.938L529.178,157.57M523.167,164.646L517.247,171.119M532.688,155.944L531.38,157.657M502.808,188.085L498.157,192.394M507.866,183.231L502.808,188.085M513.319,177.787L507.866,183.231M519.128,171.716L513.319,177.787M525.2,165.002L519.128,171.716M531.38,157.657L525.2,165.002M497.183,193.267L498.157,192.394M545.202,133.426L540.526,141.842M532.688,155.944L537.435,149.732M540.325,145.405L537.435,149.732M525.416,175.946L518.728,183.626L512.736,190.44M499.876,205.277L499.765,205.193M498.206,207.309L498.968,206.382M504.751,199.552L504.736,199.539M512.736,190.44L507.466,196.454M504.773,199.569L504.751,199.552M507.466,196.454L502.894,201.742M499.893,205.289L499.876,205.277M502.894,201.742L498.968,206.382M499.893,205.289L500.283,205.584M504.773,199.569L505.135,199.863M547.448,127.912L545.202,133.426M540.325,145.405L543.048,141.326M547.821,132.597L543.048,141.326M550.6,125.558L547.821,132.597M560.95,125.117L555.075,136.564L547.976,147.568M540.337,157.884L532.694,167.365M547.976,147.568L540.337,157.884M532.694,167.365L525.416,175.946M516.033,218.105L509.989,213.107M500.283,205.584L504.133,208.49M509.989,213.107L504.133,208.49M526.546,227.596L522.14,223.451L516.033,218.105M524.945,216.354L517.203,209.778M529.087,220.027L524.945,216.354M517.203,209.778L509.87,203.715M505.135,199.863L509.87,203.715M564.827,113.568L560.95,125.117M522.445,286.525L533.218,286.438L542.956,285.164M511.106,285.533L522.445,286.525M507.309,284.896L511.106,285.533M524.921,277.099L532.108,276.039M510.025,276.808L516.944,277.298L524.921,277.099M541.791,271.963L538.213,274.089M532.108,276.039L538.213,274.089M547.753,283.694L542.956,285.164" style="fill:none;stroke:black;stroke-width:2px;"/>
            </g>
            <g transform="matrix(1,0,0,1,-50.6686,-44.2118)">
                <path d="M499.375,334.552L545.732,329.864M511.829,297.453L516.141,297.529M545.013,294.973L542.979,297.278M541.791,297.984L542.979,297.278M516.141,297.529L522.292,296.985L527.703,295.746M514.887,291.398L519.271,290.528M519.022,276.029L519.026,276.086M517.654,280.105L518.584,278.361L519.026,276.086M523.624,277.388L523.265,274.443M521.242,269.416L522.208,271.293M523.265,274.443L522.208,271.293M522.817,264.724L524.858,267.517M520.235,284.4L522.108,282.418M523.242,280.065L523.624,277.388M522.108,282.418L523.242,280.065M515.409,286.79L517.669,285.976L520.235,284.4M513.837,291.472L514.887,291.398M519.271,290.528L522.989,289.127M527.991,284.795L529.136,281.943L529.348,278.712M522.989,289.127L525.925,287.205M529.348,278.712L528.656,275.177M525.925,287.205L527.991,284.795M535.262,291.422L532.18,293.808M527.703,295.746L532.18,293.808M527.127,271.418L524.858,267.517M528.656,275.177L527.127,271.418M534.16,270.504L530.707,265.574M535.262,291.422L535.557,291.193M530.707,265.574L526.568,260.64M524.807,258.797L526.568,260.64M536.737,275.321L534.16,270.504M538.622,284.159L538.268,279.912M537.722,287.951L538.622,284.159M535.557,291.193L537.722,287.951M538.268,279.912L536.737,275.321M545.013,294.973L546.212,293.616M538.864,266.942L533.798,260.971M543.053,272.901L538.864,266.942M546.088,278.704L543.053,272.901M547.728,284.194L546.088,278.704M547.799,289.213L547.728,284.194M546.212,293.616L547.799,289.213M533.798,260.971L528.136,255.114M526.546,253.618L528.136,255.114M529.087,246.048L532.884,249.416M540.715,256.839L532.884,249.416M548.04,264.522L540.715,256.839M551.824,269.152L548.04,264.522M565.954,128.362L564.827,139.589M545.732,329.864L607.679,323.599M562.338,287.306L559.312,279.973M551.824,269.152L554.399,272.302M559.312,279.973L554.399,272.302M551.184,308.665L557.48,304.907M547.753,309.715L551.184,308.665M561.521,299.988L563.137,294.055M557.48,304.907L561.521,299.988M563.137,294.055L562.338,287.306M520.044,91.562L535.472,95.365" style="fill:none;stroke:black;stroke-width:2px;"/>
            </g>
            <g transform="matrix(-0.244551,-0.969636,-0.969636,0.244551,829.707,352.751)">
                <path d="M428.29,357.528L429.373,357.528" style="fill:none;stroke:rgb(0,0,255);stroke-width:1px;"/>
            </g>
            <g transform="matrix(1,0,0,1,-50.6686,-266.247)">
                <path d="M548.287,323.149L557.832,330.749M535.472,317.4L548.287,323.149" style="fill:none;stroke:black;stroke-width:2px;"/>
            </g>
            <g transform="matrix(1,0,0,1,-50.6686,-68.0978)">
                <path d="M319.616,294.967L310.62,285.971" style="fill:none;stroke:rgb(80,80,80);stroke-width:2px;stroke-linecap:round;stroke-linejoin:round;stroke-miterlimit:1.5;"/>
            </g>
            <g transform="matrix(1,0,0,1,-50.6686,-68.0978)">
                <path d="M310.62,305.724L319.616,294.967" style="fill:none;stroke:rgb(80,80,80);stroke-width:2px;stroke-linecap:round;stroke-linejoin:round;stroke-miterlimit:1.5;"/>
            </g>
        </g>
    </g>
</svg>
